<?xml version="1.0" encoding="utf-8"?>
<!DOCTYPE svg PUBLIC "-//W3C//DTD SVG 20010904//EN" "http://www.w3.org/TR/2001/REC-SVG-20010904/DTD/svg10.dtd">
<svg version="1.0" xmlns="http://www.w3.org/2000/svg" width="502pt" height="502pt" viewBox="0 0 502 502" style="" preserveAspectRatio="xMidYMid meet">
<g fill="#6689C4FF">
<path d="M 399.000 415.500 L 399.000 462.000 364.250 461.999 C 345.138 461.998 312.963 461.700 292.750 461.336 L 256.000 460.676 256.000 426.338 L 256.000 392.000 251.500 392.000 L 247.000 392.000 247.000 426.337 L 247.000 460.673 198.250 461.336 C 171.438 461.700 139.263 461.998 126.750 461.999 L 104.000 462.000 104.000 417.000 L 104.000 372.000 100.010 372.000 L 96.021 372.000 95.760 416.750 L 95.500 461.500 76.417 462.000 L 57.333 462.500 52.443 465.526 C 49.421 467.397 46.397 470.421 44.526 473.443 C 41.701 478.008 41.478 479.087 41.164 489.666 L 40.828 501.000 251.914 501.000 L 463.000 501.000 463.000 492.682 C 463.000 477.821 458.396 468.757 448.482 464.096 C 444.470 462.211 442.213 462.000 426.011 462.000 L 408.000 462.000 408.000 415.500 L 408.000 369.000 403.500 369.000 L 399.000 369.000 399.000 415.500 "/></g>
<g fill="#4165A2FF">
<path d="M 208.820 226.113 C 207.547 237.153 198.240 250.017 187.445 255.658 L 182.005 258.500 182.002 290.301 L 182.000 322.102 185.250 319.669 C 187.038 318.331 189.967 316.494 191.760 315.587 C 194.963 313.967 194.993 313.887 193.510 311.019 C 192.679 309.413 192.000 306.897 192.000 305.427 C 192.000 303.189 192.239 302.953 193.470 303.975 C 194.643 304.949 196.846 304.720 204.340 302.848 C 212.320 300.855 213.979 300.085 215.324 297.750 C 217.433 294.087 219.891 294.207 220.652 298.009 C 221.129 300.396 222.211 301.442 225.877 303.063 C 232.969 306.199 235.831 309.558 241.586 321.500 L 246.888 332.500 246.944 296.750 L 247.000 261.000 251.500 261.000 L 256.000 261.000 256.000 302.000 L 256.000 343.000 263.088 343.000 L 270.177 343.000 269.838 354.084 C 269.501 365.151 269.495 365.173 266.258 368.063 C 260.579 373.134 255.068 372.891 249.849 367.342 C 247.734 365.093 247.466 363.758 247.162 353.922 L 246.823 343.000 243.412 343.000 L 240.000 343.000 240.000 353.032 C 240.000 363.740 241.282 368.530 245.298 372.831 C 248.775 376.556 252.464 378.000 258.500 378.000 C 264.536 378.000 268.225 376.556 271.702 372.831 C 275.663 368.590 277.000 363.715 277.000 353.519 L 277.000 343.973 280.379 345.385 C 283.490 346.685 283.920 346.635 285.796 344.760 C 288.899 341.656 296.953 341.185 301.459 343.843 L 305.000 345.933 305.000 296.969 L 305.000 248.005 301.459 243.076 C 299.512 240.365 296.883 235.078 295.617 231.325 L 293.316 224.503 292.574 228.502 C 290.627 238.988 280.157 251.694 269.253 256.804 C 264.383 259.086 261.889 259.551 253.000 259.831 C 244.264 260.106 241.576 259.813 237.000 258.088 C 222.741 252.712 211.325 238.204 209.782 223.500 C 209.564 221.428 209.267 222.236 208.820 226.113 "/></g>
<g fill="#00357AFF">
<path d="M 215.324 297.750 C 213.979 300.085 212.320 300.855 204.340 302.848 C 196.846 304.720 194.643 304.949 193.470 303.975 C 192.239 302.953 192.000 303.189 192.000 305.427 C 192.000 306.897 192.667 309.389 193.482 310.965 L 194.963 313.830 189.637 316.836 C 184.077 319.974 179.000 325.115 179.000 327.609 C 179.000 330.389 181.842 335.845 183.850 336.920 C 184.960 337.514 189.652 338.000 194.276 338.000 L 202.684 338.000 204.347 352.250 C 205.262 360.088 206.008 367.464 206.005 368.643 C 205.999 371.013 204.253 372.000 200.067 372.000 C 193.289 372.000 191.149 373.744 186.453 383.094 C 184.004 387.970 182.000 393.024 182.000 394.325 C 182.000 396.945 184.307 399.400 187.757 400.451 C 190.561 401.306 194.290 397.685 198.167 390.346 C 200.816 385.330 200.871 385.293 206.633 384.698 C 209.823 384.369 212.602 384.268 212.807 384.474 C 213.013 384.680 210.891 387.875 208.091 391.573 C 205.291 395.272 203.000 399.242 203.000 400.396 C 203.000 404.052 208.168 418.407 210.345 420.797 C 213.127 423.852 217.617 423.422 220.274 419.847 L 222.246 417.194 219.712 409.658 L 217.178 402.122 221.027 396.963 L 224.876 391.804 240.188 391.935 C 255.293 392.063 255.554 392.103 259.500 394.895 C 261.700 396.451 265.075 398.519 267.000 399.489 C 268.925 400.460 270.639 401.374 270.809 401.520 C 270.979 401.666 270.088 404.737 268.829 408.346 L 266.539 414.906 268.619 417.703 C 271.214 421.194 275.863 421.914 278.315 419.204 C 279.257 418.163 281.319 413.772 282.896 409.445 C 285.836 401.381 286.564 400.439 288.773 401.840 C 289.773 402.473 289.564 403.985 287.802 408.884 C 285.768 414.536 285.696 415.364 287.029 417.706 C 288.988 421.147 291.897 422.083 295.685 420.490 C 298.402 419.348 299.143 418.076 301.885 409.844 C 303.598 404.702 305.000 399.748 305.000 398.834 C 305.000 397.921 302.391 393.647 299.202 389.337 C 296.013 385.026 293.091 380.985 292.709 380.356 C 292.326 379.727 292.685 377.604 293.507 375.638 C 294.328 373.673 295.014 369.912 295.031 367.282 L 295.062 362.500 299.139 370.235 C 305.166 381.669 311.187 384.496 319.972 380.014 C 324.180 377.868 325.940 376.000 323.755 376.000 C 320.976 376.000 316.056 369.170 310.592 357.726 C 303.885 343.681 301.607 341.659 293.191 342.282 C 289.543 342.551 287.236 343.320 285.820 344.736 C 283.919 346.637 283.496 346.687 280.379 345.385 L 277.000 343.973 277.000 353.519 C 277.000 363.715 275.663 368.590 271.702 372.831 C 268.225 376.556 264.536 378.000 258.500 378.000 C 252.464 378.000 248.775 376.556 245.298 372.831 C 241.282 368.530 240.000 363.740 240.000 353.032 L 240.000 343.000 243.412 343.000 L 246.823 343.000 247.162 354.084 C 247.499 365.151 247.505 365.173 250.742 368.063 C 256.421 373.134 261.932 372.891 267.151 367.342 C 269.266 365.093 269.534 363.758 269.838 353.922 L 270.177 343.000 261.170 343.000 L 252.163 343.000 250.217 339.750 C 249.147 337.963 245.856 331.100 242.904 324.500 C 236.815 310.884 233.090 306.145 226.122 303.148 C 222.191 301.457 221.146 300.478 220.656 298.028 C 219.891 294.207 217.437 294.079 215.324 297.750 "/></g>
<g fill="#00357AFF">
<path d="M 63.152 277.787 C 61.488 280.123 59.464 281.103 52.506 282.941 C 47.780 284.189 43.033 284.980 41.957 284.699 C 39.527 284.064 39.321 286.785 41.482 290.965 C 42.962 293.827 42.957 293.835 38.232 296.546 C 31.605 300.348 27.000 304.940 27.000 307.746 C 27.000 311.334 29.802 315.974 32.613 317.043 C 33.997 317.569 38.620 318.000 42.886 318.000 L 50.641 318.000 52.330 332.750 C 54.650 353.011 54.760 351.999 50.250 352.006 C 48.188 352.009 44.805 352.482 42.734 353.057 C 39.295 354.012 38.580 354.876 34.484 363.031 C 28.733 374.483 28.642 377.782 34.020 379.810 C 38.215 381.391 40.684 379.578 44.409 372.181 L 47.889 365.271 54.049 364.574 C 57.438 364.191 60.429 364.095 60.696 364.363 C 60.963 364.630 58.891 367.875 56.091 371.573 C 53.291 375.272 51.000 379.264 51.000 380.444 C 51.000 381.625 52.270 386.371 53.823 390.992 C 57.132 400.838 60.174 404.028 64.730 402.426 C 69.175 400.863 69.828 397.100 67.064 388.981 L 64.708 382.059 68.626 376.883 L 72.545 371.707 88.022 371.898 C 103.243 372.086 103.566 372.136 107.500 374.907 C 109.700 376.456 113.075 378.519 115.000 379.489 C 116.925 380.460 118.614 381.348 118.753 381.463 C 118.892 381.578 118.104 384.291 117.003 387.492 C 115.901 390.694 115.000 394.058 115.000 394.968 C 115.000 397.506 118.788 401.000 121.539 401.000 C 125.270 401.000 127.485 398.052 130.456 389.134 C 131.942 384.672 133.506 380.806 133.931 380.542 C 134.357 380.279 135.457 380.613 136.375 381.285 C 137.920 382.415 137.876 382.969 135.772 388.756 C 133.675 394.524 133.618 395.219 135.031 397.753 C 136.964 401.220 142.731 402.099 145.167 399.299 C 147.782 396.292 152.825 379.760 151.895 377.245 C 151.447 376.034 148.528 371.653 145.408 367.507 L 139.735 359.971 141.484 354.412 C 142.617 350.808 143.024 347.385 142.639 344.677 C 142.096 340.851 142.424 341.238 146.549 349.281 C 152.712 361.297 157.934 364.284 166.282 360.567 C 172.537 357.783 172.602 357.538 168.157 353.523 C 164.322 350.058 162.792 347.422 157.003 334.306 C 153.646 326.699 149.235 322.822 143.307 322.267 C 139.325 321.894 137.847 322.263 134.696 324.415 C 131.742 326.433 130.472 326.788 129.012 326.006 C 127.978 325.453 126.711 325.000 126.197 325.000 C 125.683 325.000 125.051 329.742 124.793 335.539 C 124.364 345.187 124.079 346.424 121.412 350.185 C 117.580 355.591 112.896 358.000 106.216 358.000 C 100.267 358.000 96.774 356.525 92.814 352.339 C 88.810 348.108 88.000 344.926 88.000 333.435 C 88.000 323.117 88.027 323.000 90.375 323.000 C 91.681 323.000 94.101 322.730 95.753 322.399 L 98.757 321.799 91.628 306.681 C 83.830 290.142 79.760 284.907 73.166 282.932 C 70.068 282.003 69.029 281.092 68.344 278.703 C 67.167 274.600 65.616 274.327 63.152 277.787 "/></g>
<g fill="#00357AFF">
<path d="M 367.152 274.787 C 365.488 277.123 363.464 278.103 356.506 279.941 C 351.780 281.189 347.033 281.980 345.957 281.699 C 343.311 281.007 343.301 284.841 345.939 288.195 L 347.878 290.661 343.476 292.799 C 341.055 293.975 337.214 296.619 334.940 298.673 C 331.259 301.999 330.865 302.783 331.357 305.810 C 332.504 312.878 333.863 313.759 344.817 314.536 L 354.696 315.236 356.494 331.219 C 358.505 349.095 358.541 348.957 351.797 348.985 C 349.760 348.993 346.950 349.521 345.552 350.158 C 342.437 351.577 334.000 366.680 334.000 370.836 C 334.000 374.301 336.740 377.000 340.257 377.000 C 343.588 377.000 345.398 375.136 349.006 367.987 L 351.925 362.205 358.024 361.497 C 361.378 361.108 364.308 360.975 364.535 361.202 C 364.762 361.429 362.710 364.685 359.974 368.437 C 357.238 372.189 355.000 376.213 355.000 377.377 C 355.000 378.542 356.372 383.613 358.049 388.646 C 360.622 396.369 361.533 397.978 363.885 398.952 C 366.020 399.837 367.301 399.820 369.360 398.882 C 373.263 397.103 373.688 393.690 370.992 385.770 L 368.667 378.941 371.012 375.721 C 376.835 367.723 374.560 368.461 392.175 368.855 L 408.049 369.211 414.433 373.491 C 417.944 375.846 421.321 377.940 421.937 378.146 C 422.703 378.401 422.415 380.386 421.029 384.416 C 418.455 391.897 418.481 392.572 421.455 395.545 C 426.718 400.809 430.519 397.993 434.513 385.873 C 436.031 381.268 437.397 377.351 437.550 377.169 C 437.703 376.987 438.742 377.327 439.859 377.924 C 441.885 379.009 441.886 379.019 439.944 384.662 C 437.499 391.769 437.508 393.508 440.000 396.000 C 442.514 398.514 446.432 398.568 448.877 396.123 C 451.027 393.973 456.000 379.808 456.000 375.833 C 456.000 374.143 453.777 370.175 449.905 364.953 L 443.810 356.733 445.521 351.293 C 446.644 347.725 447.018 344.417 446.609 341.677 C 446.036 337.832 446.364 338.207 450.743 346.408 C 454.556 353.547 456.248 355.703 459.269 357.266 C 463.619 359.516 467.648 359.124 472.865 355.942 L 476.231 353.889 472.365 350.554 C 468.388 347.123 468.021 346.513 461.110 331.841 C 456.389 321.818 453.040 319.000 445.854 319.000 C 441.895 319.000 437.563 320.842 435.922 323.222 C 435.605 323.683 434.030 323.376 432.422 322.540 L 429.500 321.019 428.894 331.425 C 428.390 340.096 427.864 342.556 425.742 346.176 C 419.174 357.385 403.949 358.134 395.571 347.661 C 392.592 343.936 392.490 343.469 392.169 332.036 L 391.838 320.251 397.330 319.564 L 402.823 318.878 395.342 303.189 C 391.227 294.560 386.880 286.444 385.680 285.153 C 383.291 282.580 376.892 279.000 374.684 279.000 C 373.917 279.000 372.880 277.573 372.380 275.828 C 371.168 271.603 369.636 271.298 367.152 274.787 "/></g>
<g fill="#4165A2FF">
<path d="M 125.250 201.756 L 41.000 202.011 41.000 210.006 L 41.000 218.000 125.250 218.011 C 171.588 218.017 247.373 218.012 293.663 218.000 C 360.463 217.983 377.931 218.238 378.334 219.239 C 378.740 220.247 378.858 220.245 378.921 219.230 C 378.984 218.223 387.664 217.973 420.750 218.024 L 462.500 218.088 462.210 210.044 L 461.919 202.000 420.710 201.994 C 398.044 201.991 341.250 201.879 294.500 201.744 C 247.750 201.610 171.588 201.615 125.250 201.756 "/></g>
<g fill="#00357AFF">
<path d="M 248.763 35.099 L 248.500 69.197 145.135 135.349 L 41.771 201.500 82.818 201.761 L 123.866 202.022 129.183 196.325 C 149.026 175.065 244.116 74.589 248.095 70.679 L 253.000 65.858 253.000 33.429 C 253.000 1.738 252.955 1.000 251.013 1.000 C 249.075 1.000 249.020 1.830 248.763 35.099 "/></g>
<g fill="#6689C4FF">
<path d="M 253.621 45.804 C 253.333 46.270 253.024 51.971 252.934 58.474 L 252.770 70.298 273.570 136.149 L 294.369 202.000 336.185 202.000 C 359.183 202.000 378.000 201.634 378.000 201.186 C 378.000 200.738 350.129 170.926 316.064 134.936 L 254.128 69.500 254.136 57.229 C 254.141 50.480 253.909 45.339 253.621 45.804 "/></g>
<g fill="#6689C4FF">
<path d="M 249.238 69.163 C 248.557 69.843 247.966 69.973 247.923 69.450 C 247.881 68.928 247.701 69.255 247.523 70.178 C 247.344 71.100 219.816 100.743 186.349 136.051 C 152.882 171.359 125.348 200.646 125.163 201.134 C 124.969 201.645 142.764 201.911 167.061 201.761 L 209.297 201.500 230.131 135.500 C 241.590 99.200 250.855 69.146 250.720 68.713 C 250.585 68.279 249.918 68.482 249.238 69.163 "/></g>
<g fill="#00357AFF">
<path d="M 230.666 134.736 C 219.277 170.906 209.969 200.838 209.980 201.250 C 209.991 201.663 228.948 202.000 252.107 202.000 C 285.381 202.000 294.114 201.738 293.736 200.750 C 293.473 200.063 284.133 170.475 272.982 135.000 C 261.830 99.525 252.406 70.156 252.039 69.736 C 251.672 69.316 242.054 98.566 230.666 134.736 "/></g>
<g fill="#00357AFF">
<path d="M 265.304 81.029 C 271.796 87.888 300.146 117.891 328.304 147.702 L 379.500 201.904 420.617 201.702 L 461.733 201.500 361.780 137.500 C 306.806 102.300 259.954 72.388 257.664 71.029 C 254.264 69.012 255.665 70.846 265.304 81.029 "/></g>
<g fill="#4165A2FF">
<path d="M 205.093 384.900 C 200.937 385.466 200.498 385.841 197.378 391.500 C 192.173 400.941 188.760 402.626 183.750 398.227 C 182.088 396.767 182.000 398.302 182.000 428.845 L 182.000 461.000 214.500 461.000 L 247.000 461.000 247.000 426.562 L 247.000 392.125 236.006 391.812 L 225.011 391.500 221.101 396.830 L 217.191 402.161 219.719 409.677 L 222.246 417.194 220.274 419.847 C 217.617 423.422 213.127 423.852 210.345 420.797 C 208.168 418.407 203.000 404.052 203.000 400.396 C 203.000 399.242 205.250 395.326 208.000 391.693 C 210.750 388.061 213.000 384.844 213.000 384.544 C 213.000 383.945 211.669 384.005 205.093 384.900 "/></g>
<g fill="#6689C4FF">
<path d="M 294.000 222.343 C 294.000 227.651 296.899 236.379 300.438 241.726 C 309.027 254.706 327.739 262.843 342.740 260.124 C 359.542 257.078 372.034 245.675 377.062 228.793 C 380.572 217.006 384.361 218.000 335.933 218.000 L 294.000 218.000 294.000 222.343 "/></g>
<g fill="#6689C4FF">
<path d="M 125.000 219.951 C 125.000 229.227 130.819 241.647 138.622 249.027 C 152.377 262.036 172.894 264.285 189.427 254.596 C 194.987 251.337 202.249 243.416 205.429 237.141 C 207.827 232.408 210.352 220.489 209.325 218.750 C 209.081 218.338 190.009 218.000 166.941 218.000 C 126.019 218.000 125.000 218.047 125.000 219.951 "/></g>
<g fill="#00357AFF">
<path d="M 210.000 222.306 C 210.000 236.443 222.091 252.467 237.000 258.088 C 241.576 259.813 244.264 260.106 253.000 259.831 C 261.889 259.551 264.383 259.086 269.253 256.804 C 282.666 250.518 293.931 234.099 293.988 220.750 L 294.000 218.000 252.000 218.000 L 210.000 218.000 210.000 222.306 "/></g>
<g fill="#00357AFF">
<path d="M 41.000 220.790 C 41.000 222.324 41.680 226.190 42.511 229.380 C 49.064 254.540 77.960 267.631 101.128 255.936 C 108.737 252.094 115.836 245.555 119.295 239.199 C 122.019 234.194 125.000 224.314 125.000 220.290 L 125.000 218.000 83.000 218.000 L 41.000 218.000 41.000 220.790 "/></g>
<g fill="#00357AFF">
<path d="M 379.279 224.142 C 380.043 232.561 385.538 243.543 391.703 248.970 C 413.292 267.973 445.963 261.836 458.398 236.440 C 460.825 231.483 463.313 219.646 462.168 218.501 C 461.892 218.225 443.004 218.000 420.194 218.000 L 378.722 218.000 379.279 224.142 "/></g>
<g fill="#4165A2FF">
<path d="M 256.000 427.000 L 256.000 461.000 280.500 461.000 L 305.000 461.000 304.935 431.250 L 304.870 401.500 301.685 410.442 C 298.943 418.141 298.083 419.549 295.500 420.574 C 291.698 422.083 288.366 420.898 286.810 417.482 C 285.836 415.345 286.012 413.858 287.841 408.776 C 289.574 403.959 289.774 402.474 288.773 401.840 C 286.564 400.439 285.836 401.381 282.896 409.445 C 281.319 413.772 279.257 418.163 278.315 419.204 C 275.863 421.914 271.214 421.194 268.619 417.703 L 266.539 414.906 268.829 408.346 C 270.088 404.737 270.979 401.666 270.809 401.520 C 270.639 401.374 268.925 400.469 267.000 399.509 C 265.075 398.549 262.068 396.692 260.317 395.382 C 258.566 394.072 256.878 393.000 256.567 393.000 C 256.255 393.000 256.000 408.300 256.000 427.000 "/></g>
<g fill="#4165A2FF">
<path d="M 253.232 23.471 L 253.500 45.707 269.000 40.780 C 277.525 38.070 293.050 33.122 303.500 29.785 L 322.500 23.717 304.000 17.796 C 293.825 14.540 278.179 9.482 269.232 6.556 L 252.963 1.236 253.232 23.471 "/></g>
<g fill="#6689C4FF">
<path d="M 398.720 282.591 C 398.924 308.881 399.089 311.254 400.970 314.941 C 403.522 319.943 403.516 320.000 400.500 320.000 C 398.020 320.000 398.000 320.068 398.056 328.750 C 398.127 339.631 399.479 343.739 404.000 346.801 C 408.715 349.995 414.120 349.341 418.407 345.058 C 421.497 341.969 421.500 341.958 421.500 330.733 L 421.500 319.500 414.750 319.204 L 408.000 318.909 408.000 288.971 L 408.000 259.034 403.250 256.627 L 398.500 254.220 398.720 282.591 "/></g>
<g fill="#6689C4FF">
<path d="M 99.781 256.958 L 96.061 258.500 95.781 286.803 C 95.532 311.922 95.692 315.465 97.208 318.303 C 99.488 322.571 99.423 323.000 96.500 323.000 C 94.035 323.000 94.000 323.115 94.006 331.250 C 94.009 335.788 94.458 341.108 95.004 343.074 C 97.754 352.973 110.689 355.094 115.991 346.514 C 117.657 343.819 118.000 341.533 118.000 333.132 L 118.000 323.000 111.013 323.000 L 104.026 323.000 103.763 289.208 L 103.500 255.417 99.781 256.958 "/></g>
<g fill="#4165A2FF">
<path d="M 182.051 363.715 L 182.101 391.500 186.504 382.864 C 191.142 373.768 193.348 372.000 200.067 372.000 C 204.253 372.000 205.999 371.013 206.005 368.643 C 206.008 367.464 205.262 360.088 204.347 352.250 L 202.684 338.000 194.276 338.000 C 189.652 338.000 184.998 337.534 183.934 336.965 C 182.043 335.953 182.001 336.546 182.051 363.715 "/></g>
<g fill="#6689C4FF">
<path d="M 247.000 297.033 L 247.000 333.066 249.517 338.033 C 251.260 341.473 252.643 343.000 254.017 343.000 C 255.962 343.000 256.000 342.217 256.000 302.000 L 256.000 261.000 251.500 261.000 L 247.000 261.000 247.000 297.033 "/></g>
<g fill="#4165A2FF">
<path d="M 395.168 319.730 L 391.836 320.139 392.168 331.980 C 392.490 343.475 392.590 343.934 395.571 347.661 C 403.966 358.155 419.173 357.386 425.768 346.133 C 427.959 342.394 428.408 340.211 428.801 331.372 C 429.173 322.998 428.996 320.997 427.881 320.986 C 427.121 320.979 425.528 320.712 424.341 320.393 C 422.238 319.829 422.173 320.103 421.841 330.890 C 421.507 341.745 421.438 342.028 418.407 345.057 C 414.120 349.341 408.715 349.995 404.000 346.801 C 399.486 343.744 398.127 339.632 398.056 328.816 L 398.000 320.133 400.750 319.716 C 403.229 319.341 403.254 319.301 401.000 319.310 C 399.625 319.315 397.001 319.504 395.168 319.730 "/></g>
<g fill="#4165A2FF">
<path d="M 88.000 333.435 C 88.000 344.926 88.810 348.108 92.814 352.339 C 96.774 356.525 100.267 358.000 106.216 358.000 C 112.873 358.000 117.578 355.594 121.365 350.252 C 123.968 346.582 124.289 345.192 124.867 335.106 C 125.411 325.615 125.285 323.998 124.002 323.986 C 123.176 323.979 121.488 323.701 120.250 323.370 C 118.024 322.773 118.000 322.875 118.000 333.015 C 118.000 341.534 117.661 343.813 115.991 346.514 C 110.689 355.094 97.754 352.973 95.004 343.074 C 94.458 341.108 94.009 335.788 94.006 331.250 L 94.000 323.000 91.000 323.000 L 88.000 323.000 88.000 333.435 "/></g>
<g fill="#4165A2FF">
<path d="M 295.026 367.282 C 295.012 369.912 294.328 373.673 293.507 375.638 C 292.685 377.604 292.326 379.727 292.709 380.356 C 293.091 380.985 295.996 385.003 299.163 389.283 L 304.921 397.067 305.211 388.283 C 305.413 382.151 305.122 379.198 304.249 378.500 C 303.561 377.950 301.210 374.125 299.025 370.000 L 295.053 362.500 295.026 367.282 "/></g>
<g fill="#B2C1DBFF">
<path d="M 95.245 416.500 L 95.000 461.000 79.500 461.235 L 64.000 461.471 79.750 461.485 L 95.500 461.500 95.495 416.750 L 95.489 372.000 95.245 416.500 "/></g>
<g fill="#B2C1DBFF">
<path d="M 137.500 248.500 L 141.000 252.000 137.500 248.500 L 134.000 245.000 137.500 248.500 "/></g>
</svg>
