<?xml version="1.0" standalone="no"?>
<!DOCTYPE svg PUBLIC "-//W3C//DTD SVG 20010904//EN"
 "http://www.w3.org/TR/2001/REC-SVG-20010904/DTD/svg10.dtd">
<svg version="1.0" xmlns="http://www.w3.org/2000/svg"
 width="500.000000pt" height="500.000000pt" viewBox="0 0 500.000000 500.000000"
 preserveAspectRatio="xMidYMid meet">

<g transform="translate(0.000000,500.000000) scale(0.100000,-0.100000)"
fill="#00387e" stroke="none">
<path d="M3780 4150 c-157 -42 -273 -113 -395 -241 -125 -131 -234 -300 -347
-536 -47 -97 -51 -103 -67 -89 -10 9 -23 16 -29 16 -7 0 -12 9 -12 19 0 28
-51 61 -94 61 -38 0 -150 -37 -191 -64 -23 -15 -25 -23 -23 -74 2 -55 -13
-102 -32 -102 -4 0 -15 -3 -23 -6 -10 -4 -16 2 -19 16 -2 15 -15 26 -41 35
-37 13 -38 12 -53 -17 -19 -37 -15 -103 6 -103 8 0 18 -4 21 -9 4 -5 14 5 23
23 18 33 40 41 50 16 3 -8 13 -15 23 -15 10 -1 -3 -12 -28 -25 -75 -39 -72
-57 13 -84 l36 -12 -15 -45 c-14 -42 -17 -44 -54 -44 -42 0 -42 0 -39 66 1 23
-3 44 -7 47 -5 3 -8 -8 -6 -26 l3 -32 -11 27 c-11 29 -79 76 -79 55 0 -7 15
-19 33 -27 38 -18 48 -61 22 -90 -22 -24 -49 -16 -35 11 9 16 5 20 -28 30 -63
19 -104 -20 -73 -69 10 -16 9 -16 43 -3 21 8 29 6 45 -11 10 -11 29 -25 43
-30 l25 -10 -37 -15 c-38 -15 -68 -67 -49 -86 12 -12 186 -57 222 -57 15 0 31
5 34 10 4 6 15 8 25 5 51 -16 82 49 38 79 -23 16 -21 18 33 30 34 7 44 41 19
66 -17 17 -16 22 48 159 49 105 70 140 80 136 8 -3 25 1 38 10 22 14 22 13 -8
-58 -84 -198 -238 -537 -299 -657 -87 -173 -166 -293 -272 -412 -179 -201
-352 -289 -568 -289 -235 -1 -367 97 -716 531 -269 335 -408 458 -639 566 -97
46 -297 104 -356 104 -57 0 -22 -24 68 -46 205 -50 366 -145 563 -330 99 -93
179 -189 296 -354 251 -354 341 -459 462 -540 276 -185 642 -119 897 162 137
150 264 387 526 982 94 214 177 400 185 415 l14 26 1 -27 c0 -15 -4 -38 -9
-52 -6 -14 -6 -26 -1 -28 5 -2 5 -61 0 -138 -5 -74 -9 -250 -10 -390 l0 -255
-95 144 c-103 157 -105 159 -105 144 0 -6 45 -79 100 -163 83 -127 100 -159
100 -191 l0 -39 -202 -3 -203 -2 203 -3 202 -2 0 -23 c0 -29 -247 -400 -263
-394 -7 2 -53 65 -103 140 -100 151 -110 164 -99 127 4 -14 47 -86 96 -160 49
-75 89 -139 89 -144 0 -14 -244 -366 -254 -366 -5 0 -7 112 -3 270 5 254 4
270 -12 270 -25 0 -31 -58 -31 -332 0 -126 -4 -228 -8 -228 -10 0 -61 68 -142
188 -52 77 -78 103 -63 65 4 -10 51 -85 105 -166 54 -81 96 -152 93 -157 -4
-6 -116 -10 -276 -10 -315 0 -301 -7 -222 113 71 107 70 105 49 87 -10 -8 -34
-39 -55 -70 l-36 -55 -5 70 c-4 62 -7 70 -25 70 -18 0 -20 -8 -23 -77 -2 -43
-7 -78 -12 -78 -5 0 -27 24 -49 54 -63 85 -67 76 -6 -13 30 -43 55 -84 55 -90
0 -8 -77 -12 -252 -13 l-253 -2 225 -7 c275 -8 260 -7 260 -20 0 -28 -246
-399 -265 -399 -7 0 -74 91 -149 202 -97 144 -133 205 -126 214 7 8 6 13 -5
18 -8 3 -15 10 -15 16 0 6 39 67 86 136 47 68 83 124 80 124 -2 0 -40 -50 -82
-112 -64 -92 -79 -108 -85 -92 -4 10 -8 103 -8 206 -1 190 -8 223 -38 183 -10
-14 -13 -63 -13 -198 0 -140 -3 -177 -12 -171 -10 6 -10 5 -1 -7 8 -10 12 -97
12 -289 1 -151 5 -278 10 -283 5 -5 17 -7 27 -5 18 3 19 19 24 228 l5 225 134
-202 c104 -158 139 -203 155 -203 16 0 51 46 150 195 71 107 131 195 134 195
3 0 2 -99 -1 -220 l-6 -220 41 0 41 0 -7 208 -6 207 22 -27 c13 -15 68 -97
123 -183 76 -119 104 -155 120 -155 17 0 50 43 146 190 68 104 130 190 137
190 9 0 12 -48 12 -209 0 -185 2 -210 16 -215 9 -4 19 -4 22 -2 2 3 7 94 11
203 l6 198 115 -177 c153 -237 137 -237 290 2 63 99 118 180 123 180 4 0 7
-92 7 -205 l0 -205 25 0 c24 0 25 3 26 58 1 31 4 128 8 214 l6 157 121 -187
c164 -252 145 -252 307 5 67 106 125 193 129 193 3 0 8 -95 10 -210 2 -174 6
-212 18 -220 8 -5 18 -6 22 -2 4 4 9 97 10 206 l3 199 115 -173 c63 -95 118
-177 122 -183 4 -6 10 -9 13 -5 3 3 -46 85 -109 181 -63 97 -122 189 -130 205
-15 29 -14 30 7 35 41 9 522 -7 519 -18 -1 -5 -61 -99 -132 -207 -71 -109
-124 -198 -117 -198 7 0 68 88 136 195 67 107 127 195 132 195 5 0 9 -97 9
-220 l0 -220 30 0 30 0 1 203 c1 111 1 217 0 234 l-3 33 266 0 c145 0 267 -3
269 -7 2 -5 -54 -97 -125 -207 -71 -109 -127 -200 -125 -203 3 -2 60 82 128
188 l124 192 5 -214 c5 -209 6 -214 26 -216 l21 -2 4 732 c2 403 2 986 -1
1297 -4 493 -7 565 -20 565 -11 0 -16 -15 -18 -65 -2 -36 -7 -69 -11 -73 -5
-5 -68 84 -141 197 -73 113 -136 206 -140 206 -5 0 -66 -90 -137 -201 l-128
-201 -8 312 c-4 172 -6 315 -3 317 6 6 128 -70 216 -135 112 -83 244 -198 343
-300 l87 -91 0 46 c0 42 -6 52 -69 127 -253 301 -528 504 -781 576 -111 32
-273 36 -370 10z m336 -130 c110 -30 207 -77 200 -96 -3 -9 -6 -160 -6 -336 0
-247 -3 -319 -12 -316 -13 5 -267 396 -268 413 0 6 36 66 79 135 44 68 77 127
75 130 -3 2 -9 -2 -14 -10 -58 -98 -144 -220 -153 -218 -7 2 -52 63 -101 136
-49 72 -92 130 -94 127 -3 -2 37 -68 87 -146 57 -88 91 -149 88 -160 -3 -10
-58 -102 -123 -204 l-119 -187 -7 48 c-3 27 -7 181 -7 342 -1 241 -3 292 -15
292 -21 0 -26 -46 -27 -254 -1 -105 -4 -249 -8 -321 l-6 -130 -124 190 c-68
105 -130 199 -137 210 -12 18 -9 28 22 80 20 32 28 53 19 45 -9 -7 -23 -26
-31 -42 -9 -17 -23 -28 -35 -28 -12 0 -19 -5 -16 -12 2 -7 0 -26 -4 -42 -8
-27 -8 -28 10 -12 18 17 25 8 160 -205 78 -122 141 -228 141 -235 0 -12 -50
-14 -274 -14 -298 0 -311 2 -285 52 10 20 167 266 223 351 10 15 16 27 13 27
-3 0 -59 -83 -126 -185 -88 -134 -125 -183 -136 -179 -24 10 -18 32 41 143 96
179 181 298 294 411 92 93 117 112 200 152 52 26 127 54 165 62 86 19 214 13
311 -14z m8 -517 c145 -224 180 -282 172 -291 -4 -4 -129 -9 -277 -10 l-269
-4 0 26 c0 14 29 72 64 128 100 163 195 308 201 308 3 0 52 -71 109 -157z
m653 -57 c73 -114 133 -213 133 -220 0 -15 -178 -26 -412 -26 l-138 0 0 28 c0
17 34 80 96 177 53 83 112 174 131 203 18 29 39 52 46 49 6 -2 71 -97 144
-211z m-2121 -197 c3 -6 25 -20 48 -30 30 -13 35 -19 19 -19 -18 0 -23 -8 -29
-45 -6 -41 -9 -45 -28 -39 -30 9 -29 7 -31 79 -1 62 5 79 21 54z m294 -34 c6
3 10 0 10 -7 0 -17 -20 -47 -20 -31 0 7 -10 22 -22 34 l-23 21 23 -11 c12 -7
27 -9 32 -6z m-160 -35 c8 -5 12 -12 8 -15 -10 -10 -49 5 -43 16 8 11 16 11
35 -1z m884 1 c7 -11 -246 -420 -260 -421 -15 0 -285 411 -278 422 7 11 531
10 538 -1z m606 -6 c0 -8 -41 -79 -91 -158 -51 -78 -106 -166 -123 -194 -34
-57 -57 -66 -80 -30 -7 12 -64 100 -125 196 -62 96 -110 180 -107 188 4 10 58
13 266 13 225 0 260 -2 260 -15z m620 8 c0 -3 -62 -101 -137 -216 l-137 -210
-25 31 c-14 17 -73 106 -132 198 -78 122 -105 172 -97 181 5 7 40 14 76 16
130 6 452 7 452 0z m-1742 -75 c21 -29 84 -124 141 -211 l102 -158 -21 -42
c-12 -23 -74 -120 -138 -216 l-117 -173 -6 228 c-8 295 -10 624 -4 624 2 0 22
-24 43 -52z m524 -367 l-4 -404 -124 189 c-68 104 -124 196 -124 204 0 8 18
47 41 85 48 83 211 336 214 333 1 -2 -1 -185 -3 -407z m628 15 c0 -338 -2
-395 -15 -406 -12 -10 -18 -10 -31 1 -11 9 -9 2 5 -23 34 -57 26 -59 -264 -65
l-255 -6 0 32 c0 17 7 44 16 59 15 25 15 25 0 8 -15 -18 -16 11 -16 379 0 219
2 396 4 394 16 -17 246 -384 246 -393 0 -6 -43 -78 -95 -160 -53 -82 -98 -154
-101 -160 -16 -32 40 49 111 159 44 68 87 124 96 124 9 1 58 -64 123 -164 60
-91 110 -165 113 -165 6 0 -45 85 -134 222 -46 70 -83 130 -83 135 0 29 251
423 270 423 7 0 10 -128 10 -394z m598 -224 l-3 -207 -137 205 -137 205 22 35
c11 19 73 114 136 210 l116 175 3 -208 c1 -114 1 -300 0 -415z m-408 377 c55
-85 100 -162 100 -170 0 -8 -28 -57 -61 -109 -136 -209 -142 -231 -12 -41 43
63 83 116 90 118 14 5 296 -414 290 -431 -2 -8 -79 -13 -248 -16 l-244 -6 238
-2 c182 -1 237 -5 237 -14 0 -7 -40 -76 -88 -153 -160 -255 -166 -262 -189
-247 -5 4 -64 88 -130 188 l-121 180 -1 68 c-1 51 4 75 17 95 32 45 35 57 8
26 l-25 -30 -1 380 0 380 20 -30 c12 -16 66 -100 120 -186z m-1830 17 c0 -8
-14 -21 -31 -30 -28 -14 -30 -14 -25 0 3 9 6 22 6 30 0 8 10 14 25 14 15 0 25
-6 25 -14z m878 -415 c84 -126 132 -209 132 -225 l0 -26 -180 -2 c-375 -5
-365 -5 -365 17 0 20 263 435 276 435 3 0 65 -90 137 -199z m725 -257 c9 -9
-13 -48 -113 -203 -47 -75 -99 -156 -114 -180 l-28 -44 -23 24 c-40 43 -246
372 -241 385 4 11 56 14 238 17 128 1 242 3 254 5 11 1 23 -1 27 -4z m-610
-10 c3 -4 0 -22 -8 -42 -22 -52 -236 -372 -249 -372 -7 0 -69 86 -139 192 -93
138 -125 194 -117 202 7 7 85 13 208 17 108 3 220 6 248 7 28 1 53 -1 57 -4z
m639 -46 c2 -7 6 -190 7 -405 3 -343 1 -393 -12 -393 -8 0 -73 88 -145 197
l-131 198 36 65 c54 98 221 350 232 350 5 0 11 -6 13 -12z m606 -493 l-3 -390
-267 -3 -268 -2 -5 23 c-4 12 -2 34 3 48 18 47 244 389 257 389 7 0 71 -88
141 -195 70 -107 129 -193 131 -191 2 2 -57 97 -131 210 l-135 207 106 162
c58 89 120 182 137 207 l31 45 3 -60 c1 -33 1 -235 0 -450z m-1720 408 c121
-181 194 -306 189 -327 -5 -26 -245 -376 -258 -376 -10 0 -13 773 -2 783 10
11 9 12 71 -80z m502 -314 c0 -223 -4 -389 -9 -389 -5 0 -22 15 -37 33 -38 43
-230 348 -226 359 8 28 256 397 263 392 5 -3 9 -180 9 -395z m185 201 c65
-102 118 -190 118 -195 0 -11 -216 -349 -240 -375 -12 -13 -13 24 -8 250 3
146 5 321 5 389 0 68 2 122 4 120 1 -2 56 -87 121 -189z m731 -187 c4 -17 -9
-47 -52 -115 -68 -110 -173 -269 -185 -282 -5 -6 -9 159 -9 379 l0 389 120
-174 c66 -96 122 -185 126 -197z m-1556 -25 l0 -373 -120 180 c-66 99 -119
187 -118 196 3 13 229 369 236 369 1 0 2 -168 2 -372z m1116 -240 c79 -120
144 -221 144 -224 0 -2 -126 -4 -280 -4 -321 0 -314 -2 -267 81 63 114 240
378 249 373 5 -3 74 -105 154 -226z m-620 7 c74 -115 134 -213 134 -217 0 -5
-127 -8 -281 -8 -263 0 -281 1 -277 18 9 31 270 423 281 419 5 -1 70 -97 143
-212z m-620 1 c68 -103 124 -197 124 -207 0 -18 -11 -19 -265 -19 -262 0 -265
0 -265 21 0 11 52 98 117 192 129 192 143 209 156 204 5 -1 65 -87 133 -191z
m734 -260 c0 -15 -243 -399 -256 -403 -10 -3 -259 373 -259 391 0 16 69 21
308 23 161 2 207 -1 207 -11z m-1230 -6 c0 -12 -230 -372 -244 -382 -5 -3 -14
-4 -20 -2 -20 8 -247 366 -242 380 4 11 51 14 256 14 161 0 250 -4 250 -10z
m610 -9 c-15 -30 -240 -375 -250 -385 -8 -8 -270 376 -270 396 0 4 119 8 265
8 259 0 265 0 255 -19z"/>
<path d="M3140 4080 c-89 -24 -120 -40 -120 -61 0 -13 -5 -17 -17 -13 -13 4
-11 0 6 -15 22 -20 23 -24 10 -47 -15 -29 -74 -84 -90 -84 -6 0 -6 7 1 20 8
15 6 21 -10 30 -48 26 -110 9 -110 -30 0 -27 26 -43 60 -37 23 5 32 2 40 -13
13 -25 13 -30 -3 -30 -25 0 -50 -37 -44 -67 3 -16 -1 -42 -10 -60 -15 -31 -19
-33 -70 -33 -4 0 -8 10 -8 22 0 15 -9 24 -30 30 -16 4 -35 6 -42 3 -21 -7 -42
-60 -47 -120 -4 -53 -4 -56 10 -36 9 12 19 19 24 16 5 -3 16 8 25 25 8 16 17
30 18 30 2 0 20 -8 41 -18 l37 -18 -40 -14 c-21 -7 -41 -20 -44 -29 -3 -9 -8
-23 -11 -32 -8 -17 30 -38 138 -75 76 -26 111 -30 121 -13 4 6 14 8 22 4 19
-7 63 20 63 39 0 7 -7 19 -15 26 -23 19 -18 33 10 26 18 -5 31 0 46 15 19 19
20 22 4 46 -16 24 -16 27 15 76 18 29 56 89 83 134 37 59 54 79 63 72 21 -17
64 7 64 36 0 14 -7 28 -15 31 -25 10 -17 25 10 18 15 -4 32 -1 40 6 20 16 19
59 0 67 -9 3 -22 18 -31 34 -17 34 -62 59 -101 58 -15 0 -57 -9 -93 -19z m-31
-132 c6 -2 1 -23 -12 -50 -18 -39 -27 -47 -49 -48 -37 0 -43 15 -20 48 14 19
18 38 14 67 l-5 39 31 -26 c17 -14 36 -28 41 -30z m81 -50 c0 -8 -13 -13 -30
-13 -30 0 -36 5 -23 18 11 12 53 7 53 -5z m-270 -168 c40 -20 40 -20 20 -40
-12 -12 -20 -33 -20 -55 0 -36 -5 -41 -30 -25 -10 6 -15 29 -15 74 -1 36 0 66
2 66 2 0 22 -9 43 -20z m108 -76 c-9 -9 -21 -13 -27 -10 -20 13 -11 26 16 26
25 0 26 -1 11 -16z"/>
<path d="M2430 3030 c0 -5 9 -14 20 -20 16 -8 18 -8 14 4 -6 17 -34 30 -34 16z"/>
<path d="M7 2638 c-4 -128 -7 -588 -7 -1021 0 -746 1 -788 18 -785 15 3 17 24
22 218 3 134 9 215 15 214 6 0 65 -85 133 -190 121 -185 147 -213 174 -186 6
6 1 8 -15 5 -21 -4 -36 15 -155 198 -72 112 -129 205 -126 208 2 2 48 8 102
11 l97 7 -102 1 c-114 2 -119 6 -88 66 12 23 12 26 1 17 -30 -25 -35 42 -36
425 0 299 2 375 12 372 14 -4 276 -386 277 -403 1 -6 -8 -28 -20 -50 l-20 -40
25 30 26 30 31 -35 c30 -34 30 -34 10 -3 -12 17 -21 42 -21 55 0 13 -9 29 -20
36 -33 20 -283 403 -271 415 6 6 6 16 -2 28 -9 15 -7 27 12 61 51 94 237 382
248 386 7 2 69 -82 139 -187 70 -105 129 -189 132 -187 2 3 -7 20 -21 38 -47
62 -227 349 -227 362 0 14 -20 36 -32 36 -4 0 -8 -12 -8 -26 0 -26 -235 -414
-250 -414 -16 0 -20 54 -20 293 0 200 -3 247 -13 247 -11 0 -15 -48 -20 -232z"/>
<path d="M616 2572 c-3 -5 -6 -80 -7 -166 l-1 -156 -232 -2 -231 -2 230 -6
c165 -4 229 -8 228 -16 -2 -12 -46 -89 -79 -139 -9 -14 -14 -25 -11 -25 3 0
25 30 49 68 l43 67 3 -435 c1 -253 -2 -436 -7 -438 -5 -2 -7 -12 -4 -22 3 -11
-5 -35 -17 -55 -12 -19 -19 -35 -17 -35 3 0 14 15 26 32 l21 33 0 -217 c0
-120 2 -218 4 -218 2 0 11 -3 20 -6 14 -5 16 17 16 213 0 121 3 223 7 226 3 4
13 1 22 -6 14 -11 14 -10 2 6 -11 14 -11 20 -1 32 10 12 10 15 -4 15 -20 0
-20 13 -1 49 14 27 13 29 -7 34 -21 6 -21 6 -15 263 4 142 7 318 7 393 l1 136
22 -25 c12 -14 30 -37 40 -50 26 -36 8 -2 -24 45 -19 29 -25 45 -18 57 6 11 4
18 -6 22 -21 8 -19 32 6 75 11 20 14 28 6 19 -8 -10 -17 -18 -20 -18 -4 0 -8
57 -9 127 -3 110 -5 128 -20 131 -9 2 -19 -1 -22 -6z"/>
<path d="M470 2000 c-6 -11 -8 -20 -6 -20 3 0 10 9 16 20 6 11 8 20 6 20 -3 0
-10 -9 -16 -20z"/>
<path d="M917 1822 c17 -32 17 -34 0 -65 l-19 -32 21 19 c21 19 21 19 43 0
l21 -19 -17 26 c-10 15 -14 34 -10 44 5 12 4 16 -3 12 -6 -4 -21 5 -33 20
l-21 28 18 -33z"/>
<path d="M980 1716 c0 -2 8 -10 18 -17 15 -13 16 -12 3 4 -13 16 -21 21 -21
13z"/>
<path d="M4380 1227 c0 -11 223 -348 227 -344 3 4 -207 330 -223 346 -2 2 -4
2 -4 -2z"/>
<path d="M882 951 c50 -83 75 -90 109 -31 13 21 14 27 4 15 -9 -11 -20 -26
-24 -34 -14 -24 -45 -3 -79 54 -18 30 -37 57 -43 60 -5 4 10 -25 33 -64z"/>
</g>
</svg>
