<svg xmlns="http://www.w3.org/2000/svg" width="500" height="500" viewBox="0 0 500 500">

  <!-- BASE -->
  <rect x="60" y="420" width="380" height="40" rx="20" fill="#7CA3D4"></rect>

  <!-- POSTES -->
  <rect x="120" y="190" width="10" height="230" fill="#7CA3D4"></rect>
  <rect x="245" y="190" width="10" height="230" fill="#7CA3D4"></rect>
  <rect x="370" y="190" width="10" height="230" fill="#7CA3D4"></rect>

  <!-- TECHO -->
  <polygon points="250,40 90,190 410,190" fill="#003B7A"></polygon>
  <polygon points="250,40 150,190 250,190" fill="#7CA3D4"></polygon>
  <polygon points="250,40 250,190 350,190" fill="#4A6FAF"></polygon>

  <!-- BANDERA -->
  <rect x="247" y="15" width="6" height="30" fill="#003B7A"></rect>
  <polygon points="253,15 300,30 253,45" fill="#003B7A"></polygon>

  <!-- FALDÓN -->
  <path d="
    M90 190
    Q130 240 170 190
    Q210 240 250 190
    Q290 240 330 190
    Q370 240 410 190
    Z" fill="#7CA3D4"></path>
  <path d="
    M90 190
    Q130 240 170 190
    Q210 240 250 190
    Q290 240 330 190
    Q370 240 410 190
    L410 205
    Q370 255 330 205
    Q290 255 250 205
    Q210 255 170 205
    Q130 255 90 205
    Z" fill="#003B7A"></path>

  <!-- CABALLO 1 (poste x=120) -->
  <g transform="translate(120,280) scale(0.7)">
    <g transform="translate(-90,0)">
      <!-- Cuerpo -->
      <ellipse cx="90" cy="90" rx="40" ry="25" fill="#003B7A"></ellipse>
      <!-- Patas -->
      <rect x="65" y="110" width="10" height="30" rx="3" fill="#003B7A"></rect>
      <rect x="80" y="110" width="10" height="30" rx="3" fill="#003B7A"></rect>
      <rect x="105" y="110" width="10" height="30" rx="3" fill="#003B7A"></rect>
      <rect x="120" y="110" width="10" height="30" rx="3" fill="#003B7A"></rect>
      <!-- Cuello -->
      <path d="M65 80 q-10 -30 10 -40 q20 -10 30 20 q-15 15 -30 20 z" fill="#003B7A"></path>
      <!-- Cabeza -->
      <path d="M45 80 q-20 -15 -10 -35 q10 -15 25 -10 q15 5 10 25 q-5 10 -10 15 z" fill="#003B7A"></path>
      <!-- Orejas -->
      <polygon points="45,45 55,30 60,45" fill="#003B7A"></polygon>
      <!-- Cola -->
      <path d="M130 95 q30 20 10 40 q-15 -10 -15 -25 q0 -10 5 -15 z" fill="#003B7A"></path>
      <!-- Silla -->
      <rect x="75" y="65" width="30" height="20" rx="8" fill="#7DA0D3"></rect>
      <rect x="100" y="75" width="10" height="10" rx="4" fill="#4A6FAF"></rect>
    </g>
  </g>

  <!-- CABALLO 2 (poste x=245) -->
  <g transform="translate(245,280) scale(0.7)">
    <g transform="translate(-90,0)">
      <!-- Cuerpo -->
      <ellipse cx="90" cy="90" rx="40" ry="25" fill="#003B7A"></ellipse>
      <!-- Patas -->
      <rect x="65" y="110" width="10" height="30" rx="3" fill="#003B7A"></rect>
      <rect x="80" y="110" width="10" height="30" rx="3" fill="#003B7A"></rect>
      <rect x="105" y="110" width="10" height="30" rx="3" fill="#003B7A"></rect>
      <rect x="120" y="110" width="10" height="30" rx="3" fill="#003B7A"></rect>
      <!-- Cuello -->
      <path d="M65 80 q-10 -30 10 -40 q20 -10 30 20 q-15 15 -30 20 z" fill="#003B7A"></path>
      <!-- Cabeza -->
      <path d="M45 80 q-20 -15 -10 -35 q10 -15 25 -10 q15 5 10 25 q-5 10 -10 15 z" fill="#003B7A"></path>
      <!-- Orejas -->
      <polygon points="45,45 55,30 60,45" fill="#003B7A"></polygon>
      <!-- Cola -->
      <path d="M130 95 q30 20 10 40 q-15 -10 -15 -25 q0 -10 5 -15 z" fill="#003B7A"></path>
      <!-- Silla -->
      <rect x="75" y="65" width="30" height="20" rx="8" fill="#7DA0D3"></rect>
      <rect x="100" y="75" width="10" height="10" rx="4" fill="#4A6FAF"></rect>
    </g>
  </g>

  <!-- CABALLO 3 (poste x=370) -->
  <g transform="translate(370,280) scale(0.7)">
    <g transform="translate(-90,0)">
      <!-- Cuerpo -->
      <ellipse cx="90" cy="90" rx="40" ry="25" fill="#003B7A"></ellipse>
      <!-- Patas -->
      <rect x="65" y="110" width="10" height="30" rx="3" fill="#003B7A"></rect>
      <rect x="80" y="110" width="10" height="30" rx="3" fill="#003B7A"></rect>
      <rect x="105" y="110" width="10" height="30" rx="3" fill="#003B7A"></rect>
      <rect x="120" y="110" width="10" height="30" rx="3" fill="#003B7A"></rect>
      <!-- Cuello -->
      <path d="M65 80 q-10 -30 10 -40 q20 -10 30 20 q-15 15 -30 20 z" fill="#003B7A"></path>
      <!-- Cabeza -->
      <path d="M45 80 q-20 -15 -10 -35 q10 -15 25 -10 q15 5 10 25 q-5 10 -10 15 z" fill="#003B7A"></path>
      <!-- Orejas -->
      <polygon points="45,45 55,30 60,45" fill="#003B7A"></polygon>
      <!-- Cola -->
      <path d="M130 95 q30 20 10 40 q-15 -10 -15 -25 q0 -10 5 -15 z" fill="#003B7A"></path>
      <!-- Silla -->
      <rect x="75" y="65" width="30" height="20" rx="8" fill="#7DA0D3"></rect>
      <rect x="100" y="75" width="10" height="10" rx="4" fill="#4A6FAF"></rect>
    </g>
  </g>

</svg>
