<svg xmlns="http://www.w3.org/2000/svg" width="500" height="500" viewBox="0 0 500 500" style="background:none;">
<g>
<path d="M 500.00 0.00 L 500.00 160.75 L 487.75 148.56 C471.60,132.49 450.66,116.01 438.30,109.65 L 435.10 108.00 L 435.69 139.25 C436.01,156.44 436.34,170.59 436.42,170.70 C436.50,170.81 442.46,161.71 449.65,150.48 C461.54,131.91 462.87,130.21 464.19,131.78 C464.99,132.72 471.23,142.25 478.07,152.94 L 490.50 172.39 L 491.50 164.94 C492.24,159.44 492.89,157.50 494.00,157.50 C495.31,157.50 495.57,164.08 496.05,208.50 C496.36,236.55 496.40,294.94 496.14,338.25 L 495.68 417.00 L 491.04 417.00 L 490.77 395.45 L 490.50 373.90 L 478.13 393.00 C471.33,403.50 465.56,411.89 465.30,411.64 C465.05,411.39 470.35,402.70 477.08,392.34 C483.81,381.98 489.52,372.71 489.77,371.75 C490.20,370.12 488.47,370.00 463.54,370.00 L 436.84 370.00 L 437.07 373.25 C437.19,375.04 437.23,385.61 437.15,396.75 L 437.00 417.00 L 431.00 417.00 L 431.00 395.00 C431.00,382.90 430.63,373.00 430.18,373.00 C429.73,373.00 423.77,381.77 416.93,392.50 C410.09,403.22 403.95,411.99 403.27,412.00 C402.14,412.00 404.84,407.60 421.72,382.00 C425.17,376.77 427.99,371.95 427.99,371.28 C428.00,370.37 421.96,370.00 403.75,369.78 C376.15,369.46 374.66,369.57 375.27,371.93 C375.51,372.85 381.17,382.04 387.85,392.36 C394.53,402.67 400.00,411.31 400.00,411.56 C400.00,413.80 396.58,409.35 386.41,393.86 L 374.50 375.72 L 374.00 396.11 C373.58,413.06 373.25,416.50 372.05,416.50 C369.68,416.50 369.20,412.56 369.10,392.25 C369.04,381.66 368.66,373.00 368.25,373.01 C367.84,373.01 362.06,381.67 355.42,392.26 C343.68,410.95 343.24,411.50 340.02,411.50 C336.82,411.50 336.29,410.87 325.46,394.16 C319.29,384.63 313.73,376.33 313.11,375.71 C312.30,374.90 312.00,378.58 312.00,389.65 C312.00,397.93 311.71,407.47 311.36,410.85 C310.78,416.34 310.48,417.00 308.49,417.00 C306.61,417.00 306.18,416.30 305.64,412.36 C305.29,409.81 305.00,400.48 305.00,391.63 L 305.00 375.55 L 297.23 387.52 C292.96,394.11 287.67,402.31 285.48,405.74 C282.05,411.12 281.09,411.98 278.50,411.98 C275.71,411.98 274.69,410.73 264.00,394.26 L 252.50 376.54 L 252.00 396.52 C251.51,416.25 251.47,416.50 249.27,416.82 L 247.04 417.13 L 246.77 395.90 C246.60,382.83 246.12,374.56 245.50,374.39 C244.95,374.23 238.93,382.63 232.12,393.05 C222.11,408.38 219.32,412.00 217.49,412.00 C215.67,412.00 213.11,408.67 204.03,394.50 C197.86,384.88 192.43,376.77 191.96,376.47 C191.47,376.17 191.36,385.00 191.70,396.47 L 192.31 417.00 L 183.88 417.00 L 184.55 394.75 L 185.22 372.50 L 179.36 381.00 C176.13,385.67 170.17,394.56 166.12,400.75 C157.23,414.32 155.88,414.84 150.70,406.75 C148.85,403.86 142.88,394.75 137.42,386.50 L 127.50 371.52 L 127.00 394.01 L 126.50 416.50 L 121.50 416.50 L 121.21 395.50 L 120.93 374.50 L 118.87 377.00 C116.96,379.31 116.97,379.22 119.00,375.72 C121.38,371.63 121.10,369.04 118.28,368.94 C116.88,368.89 116.98,368.68 118.75,367.97 C121.25,366.96 121.77,363.30 119.90,359.81 C119.10,358.32 119.10,357.94 119.90,358.44 C120.68,358.92 121.00,353.83 121.00,340.68 C121.00,325.76 121.28,322.01 122.46,321.04 C125.40,318.59 126.00,321.02 126.11,335.81 C126.17,343.89 126.51,353.20 126.86,356.50 L 127.50 362.50 L 135.49 350.82 C139.89,344.40 143.65,339.32 143.85,339.52 C144.06,339.72 140.31,345.58 135.54,352.53 C130.67,359.61 127.09,365.79 127.39,366.59 C127.84,367.76 132.80,368.00 156.47,368.00 C176.13,368.00 185.00,367.67 185.00,366.93 C185.00,366.34 182.46,362.17 179.36,357.68 C176.26,353.18 174.73,350.40 175.98,351.50 C177.22,352.60 179.63,355.52 181.34,358.00 L 184.46 362.50 L 185.17 358.50 C185.56,356.30 185.91,352.56 185.94,350.18 C185.99,346.29 186.22,345.89 188.25,346.18 C190.28,346.47 190.55,347.18 191.00,353.49 L 191.50 360.49 L 195.19 354.92 C197.22,351.85 199.67,348.71 200.63,347.92 C202.82,346.14 202.50,346.73 195.82,356.70 C195.41,357.32 195.02,357.90 194.64,358.45 C192.04,362.30 190.47,364.61 191.07,366.00 C191.97,368.08 197.78,368.04 212.36,367.95 C213.74,367.94 215.21,367.93 216.75,367.93 C230.91,367.85 243.29,367.50 244.26,367.13 C245.75,366.57 244.43,364.04 235.38,350.19 C229.53,341.24 225.03,333.64 225.37,333.29 C225.55,333.12 225.65,332.94 225.80,332.90 C226.22,332.78 226.98,333.90 231.10,339.92 C231.54,340.56 232.01,341.25 232.52,342.00 C240.85,354.16 245.29,360.00 246.21,360.00 C246.64,360.00 247.03,349.31 247.07,336.25 C247.16,309.77 247.72,303.50 250.00,303.50 C251.28,303.50 251.57,307.40 252.00,330.63 L 252.50 357.76 L 264.50 340.27 C271.10,330.64 276.65,322.36 276.84,321.86 C277.03,321.37 273.38,315.21 268.74,308.19 C258.85,293.24 257.74,291.28 258.26,289.73 C258.47,289.09 263.01,295.19 268.34,303.29 C273.68,311.38 278.48,318.00 279.01,318.00 C280.66,318.00 305.00,280.68 305.00,278.16 L 305.00 275.82 L 285.00 276.16 C274.00,276.35 265.00,276.16 265.00,275.75 C265.00,275.34 274.00,275.00 285.00,275.00 L 305.00 275.00 L 305.00 271.11 C305.00,267.87 303.34,264.70 295.00,252.00 C289.50,243.63 285.00,236.30 285.00,235.72 C285.00,234.05 285.89,235.26 295.70,250.30 L 304.95 264.50 L 305.08 239.00 C305.23,208.04 305.82,186.04 306.65,180.00 C307.00,177.52 307.00,175.75 306.65,176.07 C306.31,176.38 304.07,181.10 301.66,186.57 C299.26,192.03 291.55,209.55 284.54,225.50 C260.97,279.08 248.23,302.57 234.55,317.64 C222.12,331.34 209.34,339.09 192.66,343.05 C177.41,346.67 162.79,344.46 148.01,336.32 C139.79,331.79 124.06,315.99 114.77,302.95 C86.68,263.48 83.36,259.23 71.46,247.46 C52.24,228.44 33.99,217.24 13.57,211.93 C3.66,209.36 -0.04,207.00 5.84,207.00 C15.39,207.00 38.82,214.98 51.92,222.70 C70.35,233.56 80.97,243.55 102.25,270.00 C135.37,311.19 145.15,320.11 162.93,325.39 C175.48,329.11 194.77,326.50 208.18,319.26 C226.23,309.53 244.38,288.50 259.34,260.00 C264.28,250.60 281.95,211.93 289.76,193.45 L 292.74 186.40 L 289.48 186.40 C286.26,186.40 286.12,186.60 279.66,200.40 C273.34,213.90 273.18,214.44 275.06,215.75 C276.13,216.50 277.00,217.73 277.00,218.49 C277.00,220.64 274.09,223.00 271.43,223.00 C268.67,223.00 268.30,224.18 270.50,226.00 C274.18,229.05 270.60,234.96 265.96,233.49 C264.85,233.13 264.00,233.33 264.00,233.93 C264.00,235.57 258.65,235.21 248.99,232.94 C237.76,230.31 236.59,229.49 238.04,225.32 C238.81,223.09 240.23,221.72 242.82,220.67 L 246.50 219.18 L 244.00 218.21 C242.62,217.67 240.65,216.29 239.62,215.14 C238.58,213.99 237.23,213.36 236.62,213.74 C234.01,215.37 230.96,214.69 230.37,212.35 C229.08,207.19 232.00,205.08 237.98,206.88 C241.15,207.83 241.71,208.38 241.26,210.11 C240.84,211.73 241.12,212.12 242.50,211.85 C245.10,211.34 246.40,208.71 245.60,205.56 C245.10,203.56 243.82,202.38 240.92,201.24 C238.60,200.32 237.30,199.30 237.82,198.78 C239.20,197.40 245.75,201.77 246.86,204.81 C247.46,206.45 247.87,206.84 247.92,205.80 C248.06,202.84 245.88,199.26 243.19,198.04 C241.15,197.11 240.90,196.68 242.03,195.98 C242.92,195.43 243.73,195.55 244.21,196.30 C244.63,196.96 244.98,197.06 244.98,196.51 C244.99,195.97 245.93,197.27 247.07,199.39 C248.23,201.56 249.06,204.83 248.97,206.87 C248.70,212.90 248.76,213.00 252.88,213.00 C256.59,213.00 256.83,212.80 258.22,208.57 L 259.68 204.14 L 254.67 202.32 C251.91,201.32 249.48,199.96 249.26,199.29 C249.04,198.63 251.03,196.73 253.68,195.06 C256.46,193.32 257.76,192.03 256.75,192.02 C255.79,192.01 255.00,191.32 255.00,190.50 C255.00,187.94 252.52,188.85 250.59,192.11 C249.19,194.48 248.55,194.90 247.89,193.86 C247.17,192.72 247.03,192.72 247.02,193.87 C247.00,195.02 246.74,195.03 245.39,193.91 C243.52,192.36 243.87,184.06 245.91,181.61 C247.74,179.41 254.38,181.88 254.83,184.92 C255.05,186.43 255.64,186.97 256.66,186.58 C257.49,186.26 258.60,186.00 259.13,186.00 C260.95,186.00 262.98,179.41 262.10,176.36 C261.65,174.78 261.66,172.45 262.12,171.20 C263.32,167.97 274.46,162.95 281.94,162.27 C282.08,162.26 282.21,162.25 282.34,162.24 C284.69,162.02 286.08,161.89 287.32,162.28 C289.22,162.87 290.74,164.65 294.70,169.14 C298.36,173.28 298.42,173.23 304.85,160.34 C309.69,150.61 310.59,148.15 308.98,149.01 C307.85,149.62 306.04,149.83 304.96,149.49 C302.64,148.75 302.37,150.23 304.50,152.00 C305.33,152.68 306.00,153.80 306.00,154.47 C306.00,156.44 302.22,159.30 300.48,158.63 C299.61,158.30 297.91,158.64 296.70,159.39 C294.78,160.59 293.59,160.47 287.41,158.48 C281.77,156.67 272.71,152.78 271.25,151.54 C271.11,151.42 271.46,149.97 272.04,148.31 C272.82,146.07 274.11,144.96 276.99,144.00 L 280.88 142.72 L 277.19 140.83 C273.79,139.08 273.42,139.06 272.50,140.58 C270.93,143.19 267.78,146.66 268.50,145.00 C268.86,144.18 268.20,144.58 267.05,145.90 L 264.94 148.29 L 265.55 142.40 C265.88,139.15 266.95,135.15 267.92,133.50 C269.39,130.99 270.22,130.55 273.02,130.78 C277.00,131.11 279.09,132.60 278.33,134.57 C277.94,135.61 278.59,136.00 280.73,136.00 C284.19,136.00 286.00,133.00 286.00,127.28 C286.00,123.56 288.27,120.00 290.65,120.00 C291.39,120.00 292.00,119.61 292.00,119.12 C292.00,117.43 288.70,115.53 286.31,115.84 C281.08,116.53 278.76,109.98 283.47,107.83 C286.70,106.36 293.57,108.78 293.36,111.32 C293.12,114.29 295.77,113.12 299.43,108.65 C301.39,106.25 303.00,103.96 303.00,103.56 C303.00,103.15 301.99,101.92 300.75,100.83 C298.95,99.23 298.86,98.95 300.32,99.41 C301.71,99.85 302.00,99.58 301.57,98.22 C301.13,96.82 302.18,96.01 306.76,94.24 C313.46,91.64 320.20,90.06 324.67,90.02 C328.08,90.00 334.00,94.14 334.00,96.55 C334.00,97.31 334.90,98.41 336.00,99.00 C338.36,100.26 338.65,104.22 336.51,105.99 C335.66,106.70 333.95,106.95 332.51,106.59 C329.83,105.92 328.98,107.40 331.50,108.36 C333.67,109.19 333.37,113.73 331.07,114.96 C330.00,115.53 328.16,115.89 326.97,115.75 C325.19,115.54 323.39,117.76 316.81,128.23 C309.39,140.05 308.94,141.08 310.47,142.61 C311.37,143.52 311.88,144.87 311.59,145.63 C310.28,149.05 312.21,146.37 315.98,139.53 C324.06,124.90 335.69,110.28 346.88,100.67 C353.79,94.74 369.98,86.79 379.87,84.46 C390.31,82.00 405.52,82.85 417.00,86.52 C443.63,95.04 471.34,116.44 497.89,149.00 L 499.93 151.50 L 500.00 0.00 ZM 309.56 172.10 C309.91,172.66 310.77,172.97 311.48,172.81 C312.20,172.64 318.45,163.95 325.38,153.50 C335.00,138.99 337.98,133.73 337.99,131.25 C338.00,128.77 338.43,128.00 339.83,128.00 C340.93,128.00 342.97,125.99 344.94,122.94 C349.44,116.00 349.87,117.32 345.47,124.60 C343.51,127.85 342.12,131.30 342.37,132.27 C342.62,133.25 348.60,142.91 355.66,153.74 L 368.50 173.43 L 369.12 158.47 C369.46,150.23 369.81,135.40 369.88,125.50 C370.04,106.28 370.44,103.00 372.62,103.00 C373.75,103.00 374.02,106.88 374.11,124.25 C374.18,135.94 374.51,151.23 374.86,158.23 L 375.50 170.95 L 387.40 152.23 C393.95,141.93 399.49,132.82 399.71,131.99 C399.93,131.16 396.01,124.25 391.01,116.62 C386.01,109.00 382.08,102.26 382.28,101.65 C382.49,101.04 386.67,106.58 391.58,113.96 C396.48,121.34 401.00,127.54 401.61,127.73 C402.22,127.92 406.00,122.99 410.01,116.79 C410.50,116.02 410.96,115.30 411.40,114.63 C416.92,106.06 417.77,104.75 418.18,104.88 C418.29,104.91 418.37,105.04 418.49,105.16 C418.77,105.43 415.40,111.25 411.01,118.08 C406.62,124.91 403.05,130.95 403.07,131.50 C403.14,133.12 428.55,172.35 429.80,172.77 C430.64,173.05 431.02,164.17 431.22,139.45 L 431.50 105.75 L 426.00 103.31 C410.02,96.22 394.99,93.82 382.58,96.39 C360.51,100.95 343.77,113.73 326.85,138.91 C319.01,150.58 308.61,170.55 309.56,172.10 ZM 0.00 0.00 L 0.21 115.25 C0.31,175.70 0.54,222.08 0.72,222.08 C0.73,222.08 0.74,221.97 0.74,221.75 C1.01,214.89 1.39,213.00 2.54,213.00 C3.78,213.00 4.00,216.78 4.00,238.31 C4.00,257.16 4.32,264.06 5.27,265.35 C6.38,266.88 8.01,264.71 18.77,247.47 C27.51,233.44 31.00,226.97 31.00,224.77 C31.00,221.75 31.04,221.73 33.00,223.50 C34.10,224.50 35.00,225.88 35.00,226.58 C35.00,227.77 55.12,259.68 59.12,264.84 C60.91,267.15 60.94,267.00 61.22,254.84 C61.48,243.26 61.62,242.50 63.50,242.50 C65.38,242.50 65.52,243.26 65.78,254.75 C65.94,261.88 66.47,267.00 67.04,267.00 C67.58,267.00 69.40,264.75 71.10,262.00 C72.79,259.25 74.38,257.00 74.64,257.00 C74.91,257.00 74.92,257.34 74.68,257.75 C74.44,258.16 72.36,261.58 70.07,265.35 C64.22,274.96 64.49,275.45 75.51,275.35 C80.45,275.30 82.25,275.43 79.50,275.63 C67.01,276.55 65.97,277.51 70.34,284.02 C74.90,290.81 76.22,293.00 75.76,293.00 C75.50,293.00 73.40,290.30 71.08,287.00 C68.77,283.70 66.68,281.00 66.44,281.00 C66.20,281.00 66.00,298.77 66.00,320.50 C66.00,355.24 66.18,360.00 67.53,360.00 C68.89,360.00 68.89,360.31 67.53,362.95 C65.57,366.72 65.60,368.00 67.62,368.00 C68.85,368.00 68.98,368.32 68.15,369.32 C67.35,370.28 67.41,371.15 68.38,372.57 C71.61,377.30 73.19,380.00 72.75,380.00 C72.49,380.00 71.02,378.19 69.49,375.98 C67.96,373.77 66.51,372.16 66.28,372.39 C65.35,373.32 65.15,377.29 65.08,396.75 C65.00,416.31 64.93,417.00 63.00,417.00 C61.06,417.00 61.00,416.33 61.00,396.12 C61.00,373.28 60.59,369.32 58.14,368.67 C57.04,368.38 57.25,368.19 58.75,368.12 L 61.00 368.00 L 61.00 324.50 C61.00,300.58 60.84,281.00 60.64,281.00 C60.44,281.00 56.33,287.08 51.52,294.50 C46.70,301.92 42.57,308.00 42.32,308.00 C42.31,308.00 42.31,308.00 42.30,308.00 C42.23,308.00 42.18,308.00 42.14,307.97 C41.94,307.79 42.84,306.37 49.64,295.64 L 50.05 295.00 C57.26,283.63 60.00,278.69 60.00,277.05 C60.00,276.34 51.34,276.00 33.50,276.00 C9.98,276.00 7.00,276.18 7.00,277.59 C7.00,279.73 31.81,316.99 33.73,317.73 C34.65,318.08 36.03,317.35 37.19,315.91 L 39.12 313.50 L 37.56 316.70 C35.27,321.39 35.60,323.41 39.60,329.25 C43.17,334.46 42.01,333.51 36.77,326.93 L 34.04 323.50 L 32.09 326.00 C27.36,332.07 27.09,332.17 30.04,326.78 L 33.16 321.06 L 29.56 315.28 C22.10,303.27 6.46,280.64 5.39,280.29 C4.57,280.02 4.37,290.58 4.64,319.07 C4.85,340.60 5.26,358.61 5.57,359.11 C6.63,360.84 7.75,359.95 11.37,354.50 C13.38,351.48 15.23,349.00 15.49,349.00 C15.75,349.00 13.72,352.43 10.98,356.63 C10.64,357.15 10.31,357.65 10.00,358.13 C7.20,362.39 5.61,364.81 6.25,366.20 C7.10,368.03 11.83,368.07 22.81,368.16 C23.75,368.16 24.73,368.17 25.75,368.18 L 45.50 368.36 L 26.50 369.05 C16.05,369.43 7.39,369.80 7.25,369.87 C6.31,370.36 7.99,373.45 15.32,384.72 C19.90,391.75 25.60,400.58 28.00,404.33 C31.65,410.07 32.71,411.10 34.64,410.73 C35.91,410.49 36.70,410.67 36.41,411.14 C35.03,413.38 31.09,411.87 28.86,408.25 C22.06,397.14 5.73,372.94 5.32,373.34 C4.35,374.32 4.15,378.00 4.08,396.84 C4.00,415.31 3.91,416.21 2.00,416.71 C0.04,417.22 0.00,418.07 0.00,458.62 ZM 6.67 274.33 C7.03,274.70 19.41,275.00 34.17,275.00 L 61.00 275.00 L 61.00 272.35 C61.00,269.12 34.50,228.67 32.77,229.24 C31.60,229.63 27.32,236.17 13.49,258.70 C6.29,270.43 5.22,272.88 6.67,274.33 ZM 313.45 179.12 C313.70,179.37 326.36,179.71 341.59,179.87 C368.25,180.16 369.26,180.10 368.79,178.30 C367.97,175.18 340.80,133.00 339.95,133.53 C339.52,133.80 333.27,143.16 326.08,154.34 C314.48,172.36 311.85,177.52 313.45,179.12 ZM 460.75 368.25 C473.81,368.41 485.75,368.64 487.28,368.77 C490.99,369.08 491.79,366.69 489.39,362.52 C484.53,354.08 463.39,323.02 462.50,323.02 C461.95,323.02 460.40,324.71 459.05,326.76 C439.81,356.14 437.00,360.93 437.00,364.38 L 437.00 367.96 ZM 375.00 364.82 L 375.00 368.00 L 431.07 368.00 L 429.87 365.75 C426.06,358.59 400.70,321.92 400.06,322.64 C399.63,323.11 395.57,329.35 391.02,336.50 C386.47,343.65 381.00,352.23 378.87,355.57 C376.46,359.35 375.00,362.84 375.00,364.82 ZM 436.01 177.41 L 436.00 180.32 L 454.75 179.66 C465.06,179.30 477.44,179.00 482.25,179.00 C489.23,179.00 491.00,178.71 491.00,177.55 C491.00,176.75 487.56,170.79 483.36,164.30 C479.16,157.81 473.01,148.32 469.71,143.22 C466.41,138.11 463.25,134.08 462.69,134.27 C462.14,134.45 455.91,143.58 448.85,154.55 C439.98,168.35 436.02,175.40 436.01,177.41 ZM 451.75 273.25 C460.41,273.42 470.70,273.65 474.61,273.78 C485.05,274.10 491.25,273.09 490.52,271.18 C488.93,267.05 462.72,228.92 461.69,229.25 C461.03,229.46 454.99,237.83 448.25,247.86 C438.51,262.36 436.00,266.79 436.00,269.52 L 436.00 272.95 ZM 375.00 177.84 L 375.00 180.25 L 401.96 179.83 C416.79,179.59 429.21,179.13 429.55,178.79 C430.42,177.92 429.22,175.87 415.19,154.25 C408.31,143.66 402.15,135.00 401.49,135.00 C399.41,135.00 375.00,174.48 375.00,177.84 ZM 313.45 273.72 C313.96,275.05 315.33,275.19 322.27,274.65 C326.80,274.30 338.94,274.01 349.25,274.01 L 368.00 274.00 L 367.94 271.25 C367.88,268.34 343.55,230.85 341.31,230.21 C340.65,230.03 334.48,238.45 327.59,248.94 C312.84,271.39 312.67,271.70 313.45,273.72 ZM 375.00 271.18 L 375.00 274.32 L 400.70 273.68 C419.57,273.21 426.73,272.70 427.68,271.75 C428.72,270.71 427.09,267.59 418.91,254.98 C403.79,231.67 402.60,230.00 401.23,230.00 C400.54,230.00 394.35,238.56 387.48,249.02 C378.20,263.17 375.00,268.85 375.00,271.18 ZM 312.00 365.92 C312.00,366.67 320.58,367.00 340.00,367.00 C355.40,367.00 368.00,366.70 368.00,366.33 C368.00,365.13 340.78,323.00 340.01,323.00 C339.05,323.00 312.00,364.45 312.00,365.92 ZM 312.00 254.25 C312.00,261.81 312.34,267.99 312.75,267.99 C313.58,267.97 335.81,234.41 338.44,229.21 L 340.10 225.91 L 326.58 205.46 C319.14,194.20 312.52,185.00 311.87,185.00 C310.96,185.00 310.83,191.58 311.34,212.75 C311.70,228.01 312.00,246.69 312.00,254.25 ZM 425.48 355.96 C429.78,362.77 430.46,361.16 430.82,343.42 C431.25,322.29 429.99,279.00 428.95,279.00 C426.71,279.00 401.65,319.67 402.80,321.44 C403.19,322.04 407.85,329.11 413.17,337.16 C418.49,345.21 424.03,353.67 425.48,355.96 ZM 427.35 265.19 C427.94,265.57 429.01,265.41 429.72,264.82 C430.72,263.99 430.98,256.28 430.90,229.63 C430.85,210.86 430.51,193.05 430.15,190.06 L 429.50 184.61 L 418.73 200.83 C412.80,209.76 406.79,219.43 405.36,222.33 L 402.77 227.62 L 410.41 239.34 C414.62,245.78 419.90,254.08 422.16,257.78 C424.41,261.48 426.75,264.81 427.35,265.19 ZM 142.21 391.48 C149.48,402.22 155.95,411.00 156.59,411.00 C157.23,411.00 162.70,403.46 168.76,394.25 C180.13,376.95 183.50,371.16 182.67,370.33 C182.40,370.07 170.22,369.59 155.59,369.27 C131.42,368.74 129.00,368.84 129.00,370.32 C129.00,371.22 134.95,380.74 142.21,391.48 ZM 252.00 364.93 C252.00,366.97 252.35,367.00 278.62,367.00 L 305.23 367.00 L 304.80 364.75 C304.29,362.11 280.14,325.00 278.93,325.00 C277.47,325.00 252.00,362.77 252.00,364.93 ZM 326.73 203.31 C334.19,214.73 340.79,223.91 341.40,223.71 C342.00,223.52 348.23,214.17 355.23,202.94 C366.04,185.60 367.71,182.41 366.23,181.83 C363.81,180.87 314.23,180.82 313.64,181.78 C313.37,182.21 319.26,191.90 326.73,203.31 ZM 448.61 297.95 C457.27,311.01 461.04,315.89 462.50,315.94 C464.03,315.99 467.31,311.60 476.38,297.37 C482.92,287.12 488.32,278.01 488.38,277.12 C488.49,275.67 485.70,275.47 462.13,275.23 L 435.76 274.97 L 436.24 277.49 C436.51,278.89 442.08,288.09 448.61,297.95 ZM 460.17 221.49 C461.30,222.93 462.39,223.95 462.58,223.75 C463.56,222.77 489.29,183.40 489.78,182.14 C490.27,180.86 487.00,180.76 464.45,181.34 C436.10,182.07 434.28,182.46 437.77,187.07 C438.78,188.41 443.77,196.11 448.86,204.19 C453.95,212.27 459.04,220.05 460.17,221.49 ZM 327.25 298.59 C333.98,308.72 340.02,317.00 340.66,317.00 C341.30,317.00 343.17,314.86 344.80,312.25 C346.44,309.64 351.88,301.22 356.89,293.54 C361.90,285.86 366.00,278.64 366.00,277.49 C366.00,275.43 365.74,275.40 344.75,275.73 C319.39,276.12 315.00,276.55 315.00,278.65 C315.00,279.49 320.51,288.46 327.25,298.59 ZM 398.52 313.75 C399.39,314.99 400.73,316.00 401.51,316.00 C402.29,316.00 403.46,314.99 404.11,313.75 C404.76,312.51 409.20,305.42 413.97,298.00 C418.75,290.58 423.92,282.34 425.45,279.70 L 428.25 274.90 L 402.20 275.20 C387.88,275.37 375.87,275.80 375.50,276.16 C375.14,276.53 375.38,277.84 376.05,279.09 C377.19,281.23 395.19,309.00 398.52,313.75 ZM 394.42 213.80 C398.08,219.64 400.79,222.99 401.71,222.80 C403.16,222.50 428.00,184.88 428.00,182.98 C428.00,182.36 418.14,182.00 401.50,182.00 C383.93,182.00 375.00,182.35 375.00,183.03 C375.00,183.60 378.06,188.66 381.80,194.28 C385.54,199.90 391.22,208.69 394.42,213.80 ZM 486.52 355.71 L 490.50 361.93 L 490.77 341.53 C490.92,330.31 490.92,311.54 490.77,299.82 L 490.50 278.50 L 477.60 298.00 C470.51,308.73 464.50,318.26 464.25,319.19 C463.98,320.18 467.65,326.77 473.17,335.19 C478.32,343.06 484.33,352.30 486.52,355.71 ZM 364.35 355.73 C365.92,357.53 367.61,359.00 368.10,359.00 C369.11,359.00 369.14,303.79 368.14,289.20 L 367.50 279.89 L 354.75 299.43 C347.74,310.18 342.00,319.51 342.00,320.16 C342.00,321.76 360.77,351.63 364.35,355.73 ZM 477.63 248.08 L 490.50 267.37 L 490.77 246.68 C490.92,235.31 490.92,216.68 490.77,205.28 L 490.50 184.56 L 477.16 204.87 C468.62,217.87 463.98,225.83 464.29,226.99 C464.55,227.98 470.55,237.47 477.63,248.08 ZM 311.66 347.75 C312.01,353.94 312.43,359.00 312.59,359.00 C313.44,359.00 338.00,321.82 338.00,320.53 C338.00,318.95 326.74,300.44 317.60,287.00 L 312.50 279.50 L 311.87 286.50 C311.01,296.19 310.87,334.14 311.66,347.75 ZM 326.72 391.32 C333.75,402.14 339.78,411.00 340.13,411.00 C340.94,411.00 365.16,373.11 365.72,370.95 C366.11,369.45 363.94,369.35 340.83,369.77 C326.90,370.02 315.15,370.55 314.72,370.94 C314.29,371.33 319.69,380.51 326.72,391.32 ZM 265.37 391.84 C272.28,402.38 278.12,411.00 278.37,411.00 C278.61,411.00 281.19,407.29 284.09,402.75 C287.00,398.21 292.67,389.47 296.69,383.32 C300.71,377.17 304.00,371.66 304.00,371.07 C304.00,370.34 295.79,370.00 277.89,370.00 C256.45,370.00 251.88,370.24 252.30,371.34 C252.58,372.08 258.47,381.31 265.37,391.84 ZM 215.20 407.74 C216.37,409.15 220.00,409.47 220.00,408.15 C220.00,407.68 225.18,399.28 231.50,389.48 C237.82,379.68 243.00,371.29 243.00,370.83 C243.00,370.37 231.74,370.00 217.97,370.00 C197.65,370.00 192.84,370.26 192.41,371.38 C191.99,372.46 210.71,402.33 215.20,407.74 ZM 355.60 247.50 L 367.50 265.50 L 367.73 261.00 C367.85,258.52 368.08,240.43 368.23,220.79 L 368.50 185.09 L 359.20 199.29 C347.12,217.74 342.68,225.67 343.25,227.79 C343.50,228.73 349.06,237.60 355.60,247.50 ZM 375.02 226.08 C375.04,264.31 375.10,265.43 376.85,263.15 C382.14,256.27 400.13,226.78 399.71,225.67 C399.26,224.51 376.30,188.08 375.38,187.08 C375.17,186.85 375.01,204.40 375.02,226.08 ZM 436.53 355.92 C437.06,358.10 437.66,357.54 442.31,350.42 C453.36,333.55 459.83,323.10 460.45,321.15 C460.94,319.61 458.09,314.63 448.80,300.80 L 436.50 282.50 L 436.22 318.00 C436.07,337.52 436.21,354.59 436.53,355.92 ZM 375.02 319.06 L 375.04 357.50 L 387.02 339.25 C393.61,329.21 399.00,320.41 399.00,319.69 C399.00,318.97 393.60,309.88 387.00,299.50 L 375.00 280.62 ZM 436.00 225.25 C436.00,246.01 436.18,263.00 436.40,263.00 C437.08,263.00 459.27,228.69 459.73,226.91 C460.13,225.40 453.65,214.45 440.26,194.00 L 436.00 187.50 ZM 292.42 339.49 C298.87,349.12 304.34,357.00 304.57,357.00 C304.81,357.00 305.00,340.47 305.00,320.27 L 305.00 283.55 L 293.86 300.52 C287.74,309.86 282.27,318.51 281.71,319.74 C280.82,321.69 282.19,324.20 292.42,339.49 ZM 301.61 114.18 C301.89,114.63 303.18,115.00 304.47,115.00 C306.24,115.00 307.49,113.82 309.47,110.27 C311.09,107.37 311.69,105.40 311.02,105.17 C310.42,104.97 308.53,103.64 306.83,102.20 L 303.73 99.60 L 304.20 103.55 C304.51,106.24 304.09,108.43 302.88,110.43 C301.90,112.04 301.33,113.73 301.61,114.18 ZM 266.04 187.71 C267.39,188.39 268.58,188.62 268.67,188.22 C268.76,187.82 269.12,185.81 269.46,183.75 C269.90,181.16 270.62,179.99 271.80,179.96 C272.73,179.93 271.70,178.97 269.50,177.82 C267.30,176.67 265.35,175.34 265.17,174.86 C264.18,172.31 263.43,174.74 263.50,180.24 C263.57,185.83 263.84,186.61 266.04,187.71 ZM 289.62 139.05 C291.21,139.61 291.59,139.10 292.09,135.72 C292.41,133.51 293.46,131.13 294.43,130.43 C296.03,129.26 295.82,128.95 292.14,127.07 C289.91,125.93 287.93,125.00 287.76,125.00 C287.58,125.00 287.50,128.01 287.58,131.69 C287.71,137.26 288.05,138.49 289.62,139.05 ZM 449.91 394.09 C456.06,403.52 460.88,411.46 460.62,411.72 C460.35,411.98 457.63,408.33 454.57,403.60 L 443.43 386.40 C440.37,381.67 438.06,377.61 438.30,377.37 C438.54,377.13 443.76,384.65 449.91,394.09 ZM 99.23 328.25 C103.96,335.32 103.51,335.84 98.60,329.00 C96.62,326.25 94.56,324.00 94.02,324.00 C93.47,324.00 91.84,325.80 90.38,328.00 C88.93,330.20 87.52,332.00 87.25,332.00 C86.81,332.00 88.40,329.30 91.65,324.53 C93.49,321.83 93.35,320.34 90.92,316.65 L 88.83 313.50 L 91.44 316.50 C92.87,318.15 94.52,319.38 95.10,319.22 C95.68,319.07 95.98,319.75 95.77,320.72 C95.56,321.70 97.12,325.09 99.23,328.25 ZM 261.40 210.39 C260.87,211.79 261.11,211.79 263.90,210.40 C267.67,208.52 268.01,206.00 264.50,206.00 C263.01,206.00 262.00,206.57 262.00,207.42 C262.00,208.20 261.73,209.54 261.40,210.39 ZM 54.99 381.92 C52.14,386.36 49.57,390.00 49.29,390.00 C49.00,390.00 49.58,388.76 50.57,387.25 C51.57,385.74 53.93,381.90 55.82,378.72 C57.72,375.54 59.47,373.14 59.72,373.39 C59.97,373.64 57.84,377.48 54.99,381.92 ZM 299.67 135.33 C300.70,136.37 301.65,136.13 303.00,134.50 C304.05,133.23 303.84,133.00 301.62,133.00 C299.09,133.00 298.29,133.95 299.67,135.33 ZM 313.30 110.58 C313.08,111.26 314.08,111.49 315.97,111.22 C317.64,110.97 319.00,110.34 319.00,109.82 C319.00,108.52 313.74,109.23 313.30,110.58 ZM 293.29 180.74 C294.07,182.44 294.56,182.72 295.16,181.78 C296.50,179.67 296.11,178.43 294.12,178.43 C292.52,178.43 292.39,178.77 293.29,180.74 ZM 276.14 183.11 C277.92,184.24 280.00,184.23 280.00,183.11 C280.00,181.89 277.06,180.85 275.80,181.62 C275.17,182.02 275.29,182.57 276.14,183.11 Z" />
<path d="M 0.00 458.62 C0.00,418.07 0.04,417.22 2.00,416.71 C3.91,416.21 4.00,415.31 4.08,396.84 C4.15,378.00 4.35,374.32 5.32,373.34 C5.73,372.94 22.06,397.14 28.86,408.25 C31.09,411.87 35.03,413.38 36.41,411.14 C36.70,410.67 35.91,410.49 34.64,410.73 C32.71,411.10 31.65,410.07 28.00,404.33 C25.60,400.58 19.90,391.75 15.32,384.72 C7.99,373.45 6.31,370.36 7.25,369.87 C7.39,369.80 16.05,369.43 26.50,369.05 L 45.50 368.36 L 25.75 368.18 C2.50,367.97 3.21,368.52 10.98,356.63 C13.72,352.43 15.75,349.00 15.49,349.00 C15.23,349.00 13.38,351.48 11.37,354.50 C7.75,359.95 6.63,360.84 5.57,359.11 C5.26,358.61 4.85,340.60 4.64,319.07 C4.37,290.58 4.57,280.02 5.39,280.29 C6.46,280.64 22.10,303.27 29.56,315.28 L 33.16 321.06 L 30.04 326.78 C27.09,332.17 27.36,332.07 32.09,326.00 L 34.04 323.50 L 36.77 326.93 C42.01,333.51 43.17,334.46 39.60,329.25 C35.60,323.41 35.27,321.39 37.56,316.70 L 39.12 313.50 L 37.19 315.91 C36.03,317.35 34.65,318.08 33.73,317.73 C31.81,316.99 7.00,279.73 7.00,277.59 C7.00,276.18 9.98,276.00 33.50,276.00 C51.34,276.00 60.00,276.34 60.00,277.05 C60.00,278.69 57.26,283.63 50.05,295.00 C41.66,308.22 41.80,308.00 42.32,308.00 C42.57,308.00 46.70,301.92 51.52,294.50 C56.33,287.08 60.44,281.00 60.64,281.00 C60.84,281.00 61.00,300.58 61.00,324.50 L 61.00 368.00 L 58.75 368.12 C57.25,368.19 57.04,368.38 58.14,368.67 C60.59,369.32 61.00,373.28 61.00,396.12 C61.00,416.33 61.06,417.00 63.00,417.00 C64.93,417.00 65.00,416.31 65.08,396.75 C65.15,377.29 65.35,373.32 66.28,372.39 C66.51,372.16 67.96,373.77 69.49,375.98 C71.02,378.19 72.49,380.00 72.75,380.00 C73.19,380.00 71.61,377.30 68.38,372.57 C67.41,371.15 67.35,370.28 68.15,369.32 C68.98,368.32 68.85,368.00 67.62,368.00 C65.60,368.00 65.57,366.72 67.53,362.95 C68.89,360.31 68.89,360.00 67.53,360.00 C66.18,360.00 66.00,355.24 66.00,320.50 C66.00,298.77 66.20,281.00 66.44,281.00 C66.68,281.00 68.77,283.70 71.08,287.00 C73.40,290.30 75.50,293.00 75.76,293.00 C76.22,293.00 74.90,290.81 70.34,284.02 C65.97,277.51 67.01,276.55 79.50,275.63 C82.25,275.43 80.45,275.30 75.51,275.35 C64.49,275.45 64.22,274.96 70.07,265.35 C72.36,261.58 74.44,258.16 74.68,257.75 C74.92,257.34 74.91,257.00 74.64,257.00 C74.38,257.00 72.79,259.25 71.10,262.00 C69.40,264.75 67.58,267.00 67.04,267.00 C66.47,267.00 65.94,261.88 65.78,254.75 C65.52,243.26 65.38,242.50 63.50,242.50 C61.62,242.50 61.48,243.26 61.22,254.84 C60.94,267.00 60.91,267.15 59.12,264.84 C55.12,259.68 35.00,227.77 35.00,226.58 C35.00,225.88 34.10,224.50 33.00,223.50 C31.04,221.73 31.00,221.75 31.00,224.77 C31.00,226.97 27.51,233.44 18.77,247.47 C8.01,264.71 6.38,266.88 5.27,265.35 C4.32,264.06 4.00,257.16 4.00,238.31 C4.00,216.78 3.78,213.00 2.54,213.00 C1.39,213.00 1.01,214.89 0.74,221.75 C0.56,226.56 0.32,178.64 0.21,115.25 L 0.00 0.00 L 250.00 0.00 L 500.00 0.00 L 499.97 75.75 L 499.93 151.50 L 497.89 149.00 C471.34,116.44 443.63,95.04 417.00,86.52 C405.52,82.85 390.31,82.00 379.87,84.46 C369.98,86.79 353.79,94.74 346.88,100.67 C335.69,110.28 324.06,124.90 315.98,139.53 C312.21,146.37 310.28,149.05 311.59,145.63 C311.88,144.87 311.37,143.52 310.47,142.61 C308.94,141.08 309.39,140.05 316.81,128.23 C323.39,117.76 325.19,115.54 326.97,115.75 C328.16,115.89 330.00,115.53 331.07,114.96 C333.37,113.73 333.67,109.19 331.50,108.36 C328.98,107.40 329.83,105.92 332.51,106.59 C333.95,106.95 335.66,106.70 336.51,105.99 C338.65,104.22 338.36,100.26 336.00,99.00 C334.90,98.41 334.00,97.31 334.00,96.55 C334.00,94.14 328.08,90.00 324.67,90.02 C320.20,90.06 313.46,91.64 306.76,94.24 C302.18,96.01 301.13,96.82 301.57,98.22 C302.00,99.58 301.71,99.85 300.32,99.41 C298.86,98.95 298.95,99.23 300.75,100.83 C301.99,101.92 303.00,103.15 303.00,103.56 C303.00,103.96 301.39,106.25 299.43,108.65 C295.77,113.12 293.12,114.29 293.36,111.32 C293.57,108.78 286.70,106.36 283.47,107.83 C278.76,109.98 281.08,116.53 286.31,115.84 C288.70,115.53 292.00,117.43 292.00,119.12 C292.00,119.61 291.39,120.00 290.65,120.00 C288.27,120.00 286.00,123.56 286.00,127.28 C286.00,133.00 284.19,136.00 280.73,136.00 C278.59,136.00 277.94,135.61 278.33,134.57 C279.09,132.60 277.00,131.11 273.02,130.78 C270.22,130.55 269.39,130.99 267.92,133.50 C266.95,135.15 265.88,139.15 265.55,142.40 L 264.94 148.29 L 267.05 145.90 C268.20,144.58 268.86,144.18 268.50,145.00 C267.78,146.66 270.93,143.19 272.50,140.58 C273.42,139.06 273.79,139.08 277.19,140.83 L 280.88 142.72 L 276.99 144.00 C274.11,144.96 272.82,146.07 272.04,148.31 C271.46,149.97 271.11,151.42 271.25,151.54 C272.71,152.78 281.77,156.67 287.41,158.48 C293.59,160.47 294.78,160.59 296.70,159.39 C297.91,158.64 299.61,158.30 300.48,158.63 C302.22,159.30 306.00,156.44 306.00,154.47 C306.00,153.80 305.33,152.68 304.50,152.00 C302.37,150.23 302.64,148.75 304.96,149.49 C306.04,149.83 307.85,149.62 308.98,149.01 C310.59,148.15 309.69,150.61 304.85,160.34 C298.42,173.23 298.36,173.28 294.70,169.14 C288.00,161.55 288.28,161.70 281.94,162.27 C274.46,162.95 263.32,167.97 262.12,171.20 C261.66,172.45 261.65,174.78 262.10,176.36 C262.98,179.41 260.95,186.00 259.13,186.00 C258.60,186.00 257.49,186.26 256.66,186.58 C255.64,186.97 255.05,186.43 254.83,184.92 C254.38,181.88 247.74,179.41 245.91,181.61 C243.87,184.06 243.52,192.36 245.39,193.91 C246.74,195.03 247.00,195.02 247.02,193.87 C247.03,192.72 247.17,192.72 247.89,193.86 C248.55,194.90 249.19,194.48 250.59,192.11 C252.52,188.85 255.00,187.94 255.00,190.50 C255.00,191.32 255.79,192.01 256.75,192.02 C257.76,192.03 256.46,193.32 253.68,195.06 C251.03,196.73 249.04,198.63 249.26,199.29 C249.48,199.96 251.91,201.32 254.67,202.32 L 259.68 204.14 L 258.22 208.57 C256.83,212.80 256.59,213.00 252.88,213.00 C248.76,213.00 248.70,212.90 248.97,206.87 C249.06,204.83 248.23,201.56 247.07,199.39 C245.93,197.27 244.99,195.97 244.98,196.51 C244.98,197.06 244.63,196.96 244.21,196.30 C243.73,195.55 242.92,195.43 242.03,195.98 C240.90,196.68 241.15,197.11 243.19,198.04 C245.88,199.26 248.06,202.84 247.92,205.80 C247.87,206.84 247.46,206.45 246.86,204.81 C245.75,201.77 239.20,197.40 237.82,198.78 C237.30,199.30 238.60,200.32 240.92,201.24 C243.82,202.38 245.10,203.56 245.60,205.56 C246.40,208.71 245.10,211.34 242.50,211.85 C241.12,212.12 240.84,211.73 241.26,210.11 C241.71,208.38 241.15,207.83 237.98,206.88 C232.00,205.08 229.08,207.19 230.37,212.35 C230.96,214.69 234.01,215.37 236.62,213.74 C237.23,213.36 238.58,213.99 239.62,215.14 C240.65,216.29 242.62,217.67 244.00,218.21 L 246.50 219.18 L 242.82 220.67 C240.23,221.72 238.81,223.09 238.04,225.32 C236.59,229.49 237.76,230.31 248.99,232.94 C258.65,235.21 264.00,235.57 264.00,233.93 C264.00,233.33 264.85,233.13 265.96,233.49 C270.60,234.96 274.18,229.05 270.50,226.00 C268.30,224.18 268.67,223.00 271.43,223.00 C274.09,223.00 277.00,220.64 277.00,218.49 C277.00,217.73 276.13,216.50 275.06,215.75 C273.18,214.44 273.34,213.90 279.66,200.40 C286.12,186.60 286.26,186.40 289.48,186.40 L 292.74 186.40 L 289.76 193.45 C281.95,211.93 264.28,250.60 259.34,260.00 C244.38,288.50 226.23,309.53 208.18,319.26 C194.77,326.50 175.48,329.11 162.93,325.39 C145.15,320.11 135.37,311.19 102.25,270.00 C80.97,243.55 70.35,233.56 51.92,222.70 C38.82,214.98 15.39,207.00 5.84,207.00 C-0.04,207.00 3.66,209.36 13.57,211.93 C33.99,217.24 52.24,228.44 71.46,247.46 C83.36,259.23 86.68,263.48 114.77,302.95 C124.06,315.99 139.79,331.79 148.01,336.32 C162.79,344.46 177.41,346.67 192.66,343.05 C209.34,339.09 222.12,331.34 234.55,317.64 C248.23,302.57 260.97,279.08 284.54,225.50 C291.55,209.55 299.26,192.03 301.66,186.57 C304.07,181.10 306.31,176.38 306.65,176.07 C307.00,175.75 307.00,177.52 306.65,180.00 C305.82,186.04 305.23,208.04 305.08,239.00 L 304.95 264.50 L 295.70 250.30 C285.89,235.26 285.00,234.05 285.00,235.72 C285.00,236.30 289.50,243.63 295.00,252.00 C303.34,264.70 305.00,267.87 305.00,271.11 L 305.00 275.00 L 285.00 275.00 C274.00,275.00 265.00,275.34 265.00,275.75 C265.00,276.16 274.00,276.35 285.00,276.16 L 305.00 275.82 L 305.00 278.16 C305.00,280.68 280.66,318.00 279.01,318.00 C278.48,318.00 273.68,311.38 268.34,303.29 C263.01,295.19 258.47,289.09 258.26,289.73 C257.74,291.28 258.85,293.24 268.74,308.19 C273.38,315.21 277.03,321.37 276.84,321.86 C276.65,322.36 271.10,330.64 264.50,340.27 L 252.50 357.76 L 252.00 330.63 C251.57,307.40 251.28,303.50 250.00,303.50 C247.72,303.50 247.16,309.77 247.07,336.25 C247.03,349.31 246.64,360.00 246.21,360.00 C245.29,360.00 240.85,354.16 232.52,342.00 C225.53,331.78 226.14,332.53 225.37,333.29 C225.03,333.64 229.53,341.24 235.38,350.19 C244.43,364.04 245.75,366.57 244.26,367.13 C243.29,367.50 230.91,367.85 216.75,367.93 C186.59,368.08 187.78,368.72 195.82,356.70 C202.50,346.73 202.82,346.14 200.63,347.92 C199.67,348.71 197.22,351.85 195.19,354.92 L 191.50 360.49 L 191.00 353.49 C190.55,347.18 190.28,346.47 188.25,346.18 C186.22,345.89 185.99,346.29 185.94,350.18 C185.91,352.56 185.56,356.30 185.17,358.50 L 184.46 362.50 L 181.34 358.00 C179.63,355.52 177.22,352.60 175.98,351.50 C174.73,350.40 176.26,353.18 179.36,357.68 C182.46,362.17 185.00,366.34 185.00,366.93 C185.00,367.67 176.13,368.00 156.47,368.00 C132.80,368.00 127.84,367.76 127.39,366.59 C127.09,365.79 130.67,359.61 135.54,352.53 C140.31,345.58 144.06,339.72 143.85,339.52 C143.65,339.32 139.89,344.40 135.49,350.82 L 127.50 362.50 L 126.86 356.50 C126.51,353.20 126.17,343.89 126.11,335.81 C126.00,321.02 125.40,318.59 122.46,321.04 C121.28,322.01 121.00,325.76 121.00,340.68 C121.00,353.83 120.68,358.92 119.90,358.44 C119.10,357.94 119.10,358.32 119.90,359.81 C121.77,363.30 121.25,366.96 118.75,367.97 C116.98,368.68 116.88,368.89 118.28,368.94 C121.10,369.04 121.38,371.63 119.00,375.72 C116.97,379.22 116.96,379.31 118.87,377.00 L 120.93 374.50 L 121.21 395.50 L 121.50 416.50 L 124.00 416.50 L 126.50 416.50 L 127.00 394.01 L 127.50 371.52 L 137.42 386.50 C142.88,394.75 148.85,403.86 150.70,406.75 C155.88,414.84 157.23,414.32 166.12,400.75 C170.17,394.56 176.13,385.67 179.36,381.00 L 185.22 372.50 L 184.55 394.75 L 183.88 417.00 L 188.10 417.00 L 192.31 417.00 L 191.70 396.47 C191.36,385.00 191.47,376.17 191.96,376.47 C192.43,376.77 197.86,384.88 204.03,394.50 C213.11,408.67 215.67,412.00 217.49,412.00 C219.32,412.00 222.11,408.38 232.12,393.05 C238.93,382.63 244.95,374.23 245.50,374.39 C246.12,374.56 246.60,382.83 246.77,395.90 L 247.04 417.13 L 249.27 416.82 C251.47,416.50 251.51,416.25 252.00,396.52 L 252.50 376.54 L 264.00 394.26 C274.69,410.73 275.71,411.98 278.50,411.98 C281.09,411.98 282.05,411.12 285.48,405.74 C287.67,402.31 292.96,394.11 297.23,387.52 L 305.00 375.55 L 305.00 391.63 C305.00,400.48 305.29,409.81 305.64,412.36 C306.18,416.30 306.61,417.00 308.49,417.00 C310.48,417.00 310.78,416.34 311.36,410.85 C311.71,407.47 312.00,397.93 312.00,389.65 C312.00,378.58 312.30,374.90 313.11,375.71 C313.73,376.33 319.29,384.63 325.46,394.16 C336.29,410.87 336.82,411.50 340.02,411.50 C343.24,411.50 343.68,410.95 355.42,392.26 C362.06,381.67 367.84,373.01 368.25,373.01 C368.66,373.00 369.04,381.66 369.10,392.25 C369.20,412.56 369.68,416.50 372.05,416.50 C373.25,416.50 373.58,413.06 374.00,396.11 L 374.50 375.72 L 386.41 393.86 C396.58,409.35 400.00,413.80 400.00,411.56 C400.00,411.31 394.53,402.67 387.85,392.36 C381.17,382.04 375.51,372.85 375.27,371.93 C374.66,369.57 376.15,369.46 403.75,369.78 C421.96,370.00 428.00,370.37 427.99,371.28 C427.99,371.95 425.17,376.77 421.72,382.00 C404.84,407.60 402.14,412.00 403.27,412.00 C403.95,411.99 410.09,403.22 416.93,392.50 C423.77,381.77 429.73,373.00 430.18,373.00 C430.63,373.00 431.00,382.90 431.00,395.00 L 431.00 417.00 L 434.00 417.00 L 437.00 417.00 L 437.15 396.75 C437.23,385.61 437.19,375.04 437.07,373.25 L 436.84 370.00 L 463.54 370.00 C488.47,370.00 490.20,370.12 489.77,371.75 C489.52,372.71 483.81,381.98 477.08,392.34 C470.35,402.70 465.05,411.39 465.30,411.64 C465.56,411.89 471.33,403.50 478.13,393.00 L 490.50 373.90 L 490.77 395.45 L 491.04 417.00 L 493.36 417.00 L 495.68 417.00 L 496.14 338.25 C496.40,294.94 496.36,236.55 496.05,208.50 C495.57,164.08 495.31,157.50 494.00,157.50 C492.89,157.50 492.24,159.44 491.50,164.94 L 490.50 172.39 L 478.07 152.94 C471.23,142.25 464.99,132.72 464.19,131.78 C462.87,130.21 461.54,131.91 449.65,150.48 C442.46,161.71 436.50,170.81 436.42,170.70 C436.34,170.59 436.01,156.44 435.69,139.25 L 435.10 108.00 L 438.30 109.65 C450.66,116.01 471.60,132.49 487.75,148.56 L 500.00 160.75 L 500.00 330.37 L 500.00 500.00 L 250.00 500.00 L 0.00 500.00 L 0.00 458.62 ZM 449.91 394.09 C443.76,384.65 438.54,377.13 438.30,377.37 C438.06,377.61 440.37,381.67 443.43,386.40 C446.49,391.13 451.51,398.87 454.57,403.60 C457.63,408.33 460.35,411.98 460.62,411.72 C460.88,411.46 456.06,403.52 449.91,394.09 ZM 54.99 381.92 C57.84,377.48 59.97,373.64 59.72,373.39 C59.47,373.14 57.72,375.54 55.82,378.72 C53.93,381.90 51.57,385.74 50.57,387.25 C49.58,388.76 49.00,390.00 49.29,390.00 C49.57,390.00 52.14,386.36 54.99,381.92 ZM 99.23 328.25 C97.12,325.09 95.56,321.70 95.77,320.72 C95.98,319.75 95.68,319.07 95.10,319.22 C94.52,319.38 92.87,318.15 91.44,316.50 L 88.83 313.50 L 90.92 316.65 C93.35,320.34 93.49,321.83 91.65,324.53 C88.40,329.30 86.81,332.00 87.25,332.00 C87.52,332.00 88.93,330.20 90.38,328.00 C91.84,325.80 93.47,324.00 94.02,324.00 C94.56,324.00 96.62,326.25 98.60,329.00 C103.51,335.84 103.96,335.32 99.23,328.25 ZM 142.21 391.48 C134.95,380.74 129.00,371.22 129.00,370.32 C129.00,368.84 131.42,368.74 155.59,369.27 C170.22,369.59 182.40,370.07 182.67,370.33 C183.50,371.16 180.13,376.95 168.76,394.25 C162.70,403.46 157.23,411.00 156.59,411.00 C155.95,411.00 149.48,402.22 142.21,391.48 ZM 265.37 391.84 C258.47,381.31 252.58,372.08 252.30,371.34 C251.88,370.24 256.45,370.00 277.89,370.00 C295.79,370.00 304.00,370.34 304.00,371.07 C304.00,371.66 300.71,377.17 296.69,383.32 C292.67,389.47 287.00,398.21 284.09,402.75 C281.19,407.29 278.61,411.00 278.37,411.00 C278.12,411.00 272.28,402.38 265.37,391.84 ZM 326.72 391.32 C319.69,380.51 314.29,371.33 314.72,370.94 C315.15,370.55 326.90,370.02 340.83,369.77 C363.94,369.35 366.11,369.45 365.72,370.95 C365.16,373.11 340.94,411.00 340.13,411.00 C339.78,411.00 333.75,402.14 326.72,391.32 ZM 215.20 407.74 C210.71,402.33 191.99,372.46 192.41,371.38 C192.84,370.26 197.65,370.00 217.97,370.00 C231.74,370.00 243.00,370.37 243.00,370.83 C243.00,371.29 237.82,379.68 231.50,389.48 C225.18,399.28 220.00,407.68 220.00,408.15 C220.00,409.47 216.37,409.15 215.20,407.74 ZM 460.75 368.25 L 437.00 367.96 L 437.00 364.38 C437.00,360.93 439.81,356.14 459.05,326.76 C460.40,324.71 461.95,323.02 462.50,323.02 C463.39,323.02 484.53,354.08 489.39,362.52 C491.79,366.69 490.99,369.08 487.28,368.77 C485.75,368.64 473.81,368.41 460.75,368.25 ZM 375.00 364.82 C375.00,362.84 376.46,359.35 378.87,355.57 C381.00,352.23 386.47,343.65 391.02,336.50 C395.57,329.35 399.63,323.11 400.06,322.64 C400.70,321.92 426.06,358.59 429.87,365.75 L 431.07 368.00 L 403.04 368.00 L 375.00 368.00 L 375.00 364.82 ZM 252.00 364.93 C252.00,362.77 277.47,325.00 278.93,325.00 C280.14,325.00 304.29,362.11 304.80,364.75 L 305.23 367.00 L 278.62 367.00 C252.35,367.00 252.00,366.97 252.00,364.93 ZM 312.00 365.92 C312.00,364.45 339.05,323.00 340.01,323.00 C340.78,323.00 368.00,365.13 368.00,366.33 C368.00,366.70 355.40,367.00 340.00,367.00 C320.58,367.00 312.00,366.67 312.00,365.92 ZM 486.52 355.71 C484.33,352.30 478.32,343.06 473.17,335.19 C467.65,326.77 463.98,320.18 464.25,319.19 C464.50,318.26 470.51,308.73 477.60,298.00 L 490.50 278.50 L 490.77 299.82 C490.92,311.54 490.92,330.31 490.77,341.53 L 490.50 361.93 L 486.52 355.71 ZM 425.48 355.96 C424.03,353.67 418.49,345.21 413.17,337.16 C407.85,329.11 403.19,322.04 402.80,321.44 C401.65,319.67 426.71,279.00 428.95,279.00 C429.99,279.00 431.25,322.29 430.82,343.42 C430.46,361.16 429.78,362.77 425.48,355.96 ZM 311.66 347.75 C310.87,334.14 311.01,296.19 311.87,286.50 L 312.50 279.50 L 317.60 287.00 C326.74,300.44 338.00,318.95 338.00,320.53 C338.00,321.82 313.44,359.00 312.59,359.00 C312.43,359.00 312.01,353.94 311.66,347.75 ZM 364.35 355.73 C360.77,351.63 342.00,321.76 342.00,320.16 C342.00,319.51 347.74,310.18 354.75,299.43 L 367.50 279.89 L 368.14 289.20 C369.14,303.79 369.11,359.00 368.10,359.00 C367.61,359.00 365.92,357.53 364.35,355.73 ZM 436.53 355.92 C436.21,354.59 436.07,337.52 436.22,318.00 L 436.50 282.50 L 448.80 300.80 C458.09,314.63 460.94,319.61 460.45,321.15 C459.83,323.10 453.36,333.55 442.31,350.42 C437.66,357.54 437.06,358.10 436.53,355.92 ZM 292.42 339.49 C282.19,324.20 280.82,321.69 281.71,319.74 C282.27,318.51 287.74,309.86 293.86,300.52 L 305.00 283.55 L 305.00 320.27 C305.00,340.47 304.81,357.00 304.57,357.00 C304.34,357.00 298.87,349.12 292.42,339.49 ZM 375.02 319.06 L 375.00 280.62 L 387.00 299.50 C393.60,309.88 399.00,318.97 399.00,319.69 C399.00,320.41 393.61,329.21 387.02,339.25 L 375.04 357.50 L 375.02 319.06 ZM 327.25 298.59 C320.51,288.46 315.00,279.49 315.00,278.65 C315.00,276.55 319.39,276.12 344.75,275.73 C365.74,275.40 366.00,275.43 366.00,277.49 C366.00,278.64 361.90,285.86 356.89,293.54 C351.88,301.22 346.44,309.64 344.80,312.25 C343.17,314.86 341.30,317.00 340.66,317.00 C340.02,317.00 333.98,308.72 327.25,298.59 ZM 398.52 313.75 C395.19,309.00 377.19,281.23 376.05,279.09 C375.38,277.84 375.14,276.53 375.50,276.16 C375.87,275.80 387.88,275.37 402.20,275.20 L 428.25 274.90 L 425.45 279.70 C423.92,282.34 418.75,290.58 413.97,298.00 C409.20,305.42 404.76,312.51 404.11,313.75 C403.46,314.99 402.29,316.00 401.51,316.00 C400.73,316.00 399.39,314.99 398.52,313.75 ZM 448.61 297.95 C442.08,288.09 436.51,278.89 436.24,277.49 L 435.76 274.97 L 462.13 275.23 C485.70,275.47 488.49,275.67 488.38,277.12 C488.32,278.01 482.92,287.12 476.38,297.37 C467.31,311.60 464.03,315.99 462.50,315.94 C461.04,315.89 457.27,311.01 448.61,297.95 ZM 6.67 274.33 C5.22,272.88 6.29,270.43 13.49,258.70 C27.32,236.17 31.60,229.63 32.77,229.24 C34.50,228.67 61.00,269.12 61.00,272.35 L 61.00 275.00 L 34.17 275.00 C19.41,275.00 7.03,274.70 6.67,274.33 ZM 313.45 273.72 C312.67,271.70 312.84,271.39 327.59,248.94 C334.48,238.45 340.65,230.03 341.31,230.21 C343.55,230.85 367.88,268.34 367.94,271.25 L 368.00 274.00 L 349.25 274.01 C338.94,274.01 326.80,274.30 322.27,274.65 C315.33,275.19 313.96,275.05 313.45,273.72 ZM 375.00 271.18 C375.00,268.85 378.20,263.17 387.48,249.02 C394.35,238.56 400.54,230.00 401.23,230.00 C402.60,230.00 403.79,231.67 418.91,254.98 C427.09,267.59 428.72,270.71 427.68,271.75 C426.73,272.70 419.57,273.21 400.70,273.68 L 375.00 274.32 L 375.00 271.18 ZM 451.75 273.25 L 436.00 272.95 L 436.00 269.52 C436.00,266.79 438.51,262.36 448.25,247.86 C454.99,237.83 461.03,229.46 461.69,229.25 C462.72,228.92 488.93,267.05 490.52,271.18 C491.25,273.09 485.05,274.10 474.61,273.78 C470.70,273.65 460.41,273.42 451.75,273.25 ZM 312.00 254.25 C312.00,246.69 311.70,228.01 311.34,212.75 C310.83,191.58 310.96,185.00 311.87,185.00 C312.52,185.00 319.14,194.20 326.58,205.46 L 340.10 225.91 L 338.44 229.21 C335.81,234.41 313.58,267.97 312.75,267.99 C312.34,267.99 312.00,261.81 312.00,254.25 ZM 477.63 248.08 C470.55,237.47 464.55,227.98 464.29,226.99 C463.98,225.83 468.62,217.87 477.16,204.87 L 490.50 184.56 L 490.77 205.28 C490.92,216.68 490.92,235.31 490.77,246.68 L 490.50 267.37 L 477.63 248.08 ZM 427.35 265.19 C426.75,264.81 424.41,261.48 422.16,257.78 C419.90,254.08 414.62,245.78 410.41,239.34 L 402.77 227.62 L 405.36 222.33 C406.79,219.43 412.80,209.76 418.73,200.83 L 429.50 184.61 L 430.15 190.06 C430.51,193.05 430.85,210.86 430.90,229.63 C430.98,256.28 430.72,263.99 429.72,264.82 C429.01,265.41 427.94,265.57 427.35,265.19 ZM 355.60 247.50 C349.06,237.60 343.50,228.73 343.25,227.79 C342.68,225.67 347.12,217.74 359.20,199.29 L 368.50 185.09 L 368.23 220.79 C368.08,240.43 367.85,258.52 367.73,261.00 L 367.50 265.50 L 355.60 247.50 ZM 375.02 226.08 C375.01,204.40 375.17,186.85 375.38,187.08 C376.30,188.08 399.26,224.51 399.71,225.67 C400.13,226.78 382.14,256.27 376.85,263.15 C375.10,265.43 375.04,264.31 375.02,226.08 ZM 436.00 225.25 L 436.00 187.50 L 440.26 194.00 C453.65,214.45 460.13,225.40 459.73,226.91 C459.27,228.69 437.08,263.00 436.40,263.00 C436.18,263.00 436.00,246.01 436.00,225.25 ZM 326.73 203.31 C319.26,191.90 313.37,182.21 313.64,181.78 C314.23,180.82 363.81,180.87 366.23,181.83 C367.71,182.41 366.04,185.60 355.23,202.94 C348.23,214.17 342.00,223.52 341.40,223.71 C340.79,223.91 334.19,214.73 326.73,203.31 ZM 460.17 221.49 C459.04,220.05 453.95,212.27 448.86,204.19 C443.77,196.11 438.78,188.41 437.77,187.07 C434.28,182.46 436.10,182.07 464.45,181.34 C487.00,180.76 490.27,180.86 489.78,182.14 C489.29,183.40 463.56,222.77 462.58,223.75 C462.39,223.95 461.30,222.93 460.17,221.49 ZM 394.42 213.80 C391.22,208.69 385.54,199.90 381.80,194.28 C378.06,188.66 375.00,183.60 375.00,183.03 C375.00,182.35 383.93,182.00 401.50,182.00 C418.14,182.00 428.00,182.36 428.00,182.98 C428.00,184.88 403.16,222.50 401.71,222.80 C400.79,222.99 398.08,219.64 394.42,213.80 ZM 261.40 210.39 C261.73,209.54 262.00,208.20 262.00,207.42 C262.00,206.57 263.01,206.00 264.50,206.00 C268.01,206.00 267.67,208.52 263.90,210.40 C261.11,211.79 260.87,211.79 261.40,210.39 ZM 266.04 187.71 C263.84,186.61 263.57,185.83 263.50,180.24 C263.43,174.74 264.18,172.31 265.17,174.86 C265.35,175.34 267.30,176.67 269.50,177.82 C271.70,178.97 272.73,179.93 271.80,179.96 C270.62,179.99 269.90,181.16 269.46,183.75 C269.12,185.81 268.76,187.82 268.67,188.22 C268.58,188.62 267.39,188.39 266.04,187.71 ZM 276.14 183.11 C275.29,182.57 275.17,182.02 275.80,181.62 C277.06,180.85 280.00,181.89 280.00,183.11 C280.00,184.23 277.92,184.24 276.14,183.11 ZM 293.29 180.74 C292.39,178.77 292.52,178.43 294.12,178.43 C296.11,178.43 296.50,179.67 295.16,181.78 C294.56,182.72 294.07,182.44 293.29,180.74 ZM 313.45 179.12 C311.85,177.52 314.48,172.36 326.08,154.34 C333.27,143.16 339.52,133.80 339.95,133.53 C340.80,133.00 367.97,175.18 368.79,178.30 C369.26,180.10 368.25,180.16 341.59,179.87 C326.36,179.71 313.70,179.37 313.45,179.12 ZM 375.00 177.84 C375.00,174.48 399.41,135.00 401.49,135.00 C402.15,135.00 408.31,143.66 415.19,154.25 C429.22,175.87 430.42,177.92 429.55,178.79 C429.21,179.13 416.79,179.59 401.96,179.83 L 375.00 180.25 L 375.00 177.84 ZM 436.01 177.41 C436.02,175.40 439.98,168.35 448.85,154.55 C455.91,143.58 462.14,134.45 462.69,134.27 C463.25,134.08 466.41,138.11 469.71,143.22 C473.01,148.32 479.16,157.81 483.36,164.30 C487.56,170.79 491.00,176.75 491.00,177.55 C491.00,178.71 489.23,179.00 482.25,179.00 C477.44,179.00 465.06,179.30 454.75,179.66 L 436.00 180.32 L 436.01 177.41 ZM 309.56 172.10 C308.61,170.55 319.01,150.58 326.85,138.91 C343.77,113.73 360.51,100.95 382.58,96.39 C394.99,93.82 410.02,96.22 426.00,103.31 L 431.50 105.75 L 431.22 139.45 C431.02,164.17 430.64,173.05 429.80,172.77 C428.55,172.35 403.14,133.12 403.07,131.50 C403.05,130.95 406.62,124.91 411.01,118.08 C415.40,111.25 418.77,105.43 418.49,105.16 C417.86,104.52 418.42,103.75 410.01,116.79 C406.00,122.99 402.22,127.92 401.61,127.73 C401.00,127.54 396.48,121.34 391.58,113.96 C386.67,106.58 382.49,101.04 382.28,101.65 C382.08,102.26 386.01,109.00 391.01,116.62 C396.01,124.25 399.93,131.16 399.71,131.99 C399.49,132.82 393.95,141.93 387.40,152.23 L 375.50 170.95 L 374.86 158.23 C374.51,151.23 374.18,135.94 374.11,124.25 C374.02,106.88 373.75,103.00 372.62,103.00 C370.44,103.00 370.04,106.28 369.88,125.50 C369.81,135.40 369.46,150.23 369.12,158.47 L 368.50 173.43 L 355.66 153.74 C348.60,142.91 342.62,133.25 342.37,132.27 C342.12,131.30 343.51,127.85 345.47,124.60 C349.87,117.32 349.44,116.00 344.94,122.94 C342.97,125.99 340.93,128.00 339.83,128.00 C338.43,128.00 338.00,128.77 337.99,131.25 C337.98,133.73 335.00,138.99 325.38,153.50 C318.45,163.95 312.20,172.64 311.48,172.81 C310.77,172.97 309.91,172.66 309.56,172.10 ZM 289.62 139.05 C288.05,138.49 287.71,137.26 287.58,131.69 C287.50,128.01 287.58,125.00 287.76,125.00 C287.93,125.00 289.91,125.93 292.14,127.07 C295.82,128.95 296.03,129.26 294.43,130.43 C293.46,131.13 292.41,133.51 292.09,135.72 C291.59,139.10 291.21,139.61 289.62,139.05 ZM 299.67 135.33 C298.29,133.95 299.09,133.00 301.62,133.00 C303.84,133.00 304.05,133.23 303.00,134.50 C301.65,136.13 300.70,136.37 299.67,135.33 ZM 301.61 114.18 C301.33,113.73 301.90,112.04 302.88,110.43 C304.09,108.43 304.51,106.24 304.20,103.55 L 303.73 99.60 L 306.83 102.20 C308.53,103.64 310.42,104.97 311.02,105.17 C311.69,105.40 311.09,107.37 309.47,110.27 C307.49,113.82 306.24,115.00 304.47,115.00 C303.18,115.00 301.89,114.63 301.61,114.18 ZM 313.30 110.58 C313.74,109.23 319.00,108.52 319.00,109.82 C319.00,110.34 317.64,110.97 315.97,111.22 C314.08,111.49 313.08,111.26 313.30,110.58 Z" fill=rgb(245,247,248,0)"/>
</g>
</svg>
