<svg xmlns="http://www.w3.org/2000/svg" width="500" height="500" viewBox="0 0 500 500">
<g>
<path d="M 99.00 429.08 C99.00,429.59 98.55,430.00 98.00,430.00 C97.45,430.00 97.00,429.61 97.00,429.14 C97.00,428.66 90.59,428.04 82.75,427.75 C60.77,426.93 49.41,422.61 38.35,410.82 C32.46,404.54 28.93,398.13 26.32,388.93 C24.61,382.89 24.50,376.07 24.50,276.50 C24.50,176.50 24.60,170.16 26.34,164.55 C32.09,145.89 44.20,133.80 62.50,128.41 C67.91,126.81 74.95,126.61 134.50,126.31 C170.80,126.13 201.50,125.76 202.71,125.48 C204.03,125.18 206.01,123.06 207.60,120.24 C215.74,105.82 218.99,101.17 225.47,94.67 C234.11,85.99 242.38,80.99 255.00,76.79 C264.50,73.63 264.50,73.63 290.50,73.21 C328.60,72.60 344.72,74.46 358.99,81.10 C372.48,87.38 382.33,97.31 392.01,114.42 C394.94,119.60 398.28,124.35 399.44,124.97 C400.66,125.62 408.19,126.21 417.52,126.38 C429.67,126.61 434.70,127.10 438.50,128.45 C457.43,135.15 468.69,146.91 473.78,165.28 C475.36,170.98 475.50,180.23 475.50,277.00 C475.50,281.63 475.50,286.07 475.50,290.32 C475.51,376.91 475.51,387.04 471.71,395.43 C471.02,396.96 470.20,398.42 469.24,400.28 C462.53,413.20 450.88,422.07 435.40,426.02 C427.89,427.95 423.83,428.00 288.90,428.00 C197.41,428.00 149.91,427.66 149.50,427.00 C148.95,426.12 153.28,390.92 157.61,361.00 C158.44,355.23 159.54,347.12 160.04,343.00 C160.92,335.74 166.22,295.18 173.58,239.50 C177.95,206.41 178.67,198.47 177.21,199.37 C176.62,199.73 175.86,199.58 175.51,199.02 C174.40,197.22 173.22,197.92 172.15,201.00 C171.57,202.65 170.53,204.00 169.83,204.00 C166.25,204.00 137.19,199.78 135.25,198.97 C133.76,198.36 133.00,197.19 133.00,195.52 C133.00,193.40 132.53,193.00 130.08,193.00 C128.48,193.00 126.98,193.56 126.74,194.25 C126.51,194.94 126.00,193.25 125.61,190.50 C124.18,180.46 122.00,175.81 115.95,169.88 C112.18,166.18 108.58,163.70 105.43,162.63 C99.44,160.59 89.92,160.54 83.28,162.51 C76.87,164.41 68.85,171.46 65.20,178.39 C62.88,182.80 62.52,184.66 62.55,192.00 C62.59,199.19 63.00,201.29 65.24,205.61 C69.14,213.13 72.17,216.27 79.20,220.08 C84.98,223.22 86.21,223.50 94.00,223.49 C101.24,223.47 103.24,223.08 107.50,220.84 C113.47,217.69 119.00,212.35 121.60,207.23 C122.65,205.18 123.84,203.35 124.26,203.16 C124.67,202.98 124.72,202.31 124.36,201.66 C123.86,200.78 124.01,200.78 124.96,201.66 C126.21,202.81 126.00,204.76 119.95,250.00 C118.80,258.59 111.17,316.79 109.01,333.50 C108.51,337.35 107.38,345.90 106.51,352.50 C96.99,424.01 96.61,427.37 97.84,427.78 C98.48,427.99 99.00,428.58 99.00,429.08 ZM 286.74 398.98 C289.91,399.49 298.12,399.72 305.00,399.49 C345.50,398.18 383.24,376.61 404.74,342.49 C418.88,320.06 425.78,291.22 423.04,266.00 C419.77,235.90 408.03,210.90 387.57,190.43 C361.13,163.99 325.79,151.78 287.72,155.92 C218.56,163.44 169.43,227.47 180.50,295.67 C184.57,320.80 195.88,343.52 213.39,361.78 C233.04,382.27 256.54,394.19 286.74,398.98 ZM 313.50 363.96 C274.00,369.59 233.73,345.33 219.36,307.25 C211.49,286.38 212.26,261.29 221.38,241.56 C241.03,199.02 290.20,179.17 334.04,196.08 C353.64,203.64 371.39,220.57 380.61,240.52 C391.10,263.24 391.11,290.74 380.64,313.41 C368.14,340.47 342.40,359.85 313.50,363.96 ZM 154.39 337.25 C154.01,338.53 152.87,338.98 150.18,338.92 C148.16,338.88 146.05,338.70 145.50,338.52 C144.95,338.34 139.10,337.63 132.50,336.94 C121.91,335.83 117.96,335.53 116.64,333.51 C115.86,332.31 116.01,330.50 116.25,327.56 C116.27,327.29 116.30,327.01 116.32,326.73 C116.64,322.75 117.55,314.58 118.35,308.56 C119.85,297.31 121.09,294.81 124.80,295.55 C125.73,295.73 130.32,296.38 135.00,296.97 C150.78,299.00 158.06,300.29 158.60,301.17 C159.13,302.02 155.42,333.78 154.39,337.25 ZM 160.36 291.25 C159.74,293.44 157.26,293.40 138.06,290.91 C130.08,289.88 123.06,288.47 122.38,287.77 C121.13,286.48 121.17,286.13 124.99,259.03 C125.57,254.92 126.45,251.15 126.95,250.65 C128.24,249.36 162.13,253.83 163.90,255.53 C165.08,256.66 165.11,258.35 164.07,266.19 C161.73,283.97 160.98,289.07 160.36,291.25 ZM 166.38 246.25 C165.95,247.69 164.79,247.97 159.68,247.85 C156.28,247.77 150.80,247.29 147.50,246.78 C144.20,246.27 138.46,245.39 134.75,244.83 C131.01,244.27 127.95,243.30 127.89,242.66 C127.67,240.20 128.11,235.04 129.57,223.00 C130.91,212.00 130.99,207.87 132.97,206.52 C134.14,205.71 135.98,205.88 139.13,206.16 C140.06,206.24 141.12,206.34 142.31,206.42 C156.53,207.40 167.81,209.38 169.64,211.21 C171.04,212.61 171.04,213.86 169.60,224.13 C168.72,230.38 167.75,237.52 167.45,240.00 C167.14,242.48 166.66,245.29 166.38,246.25 ZM 148.39 382.43 C147.99,383.47 146.52,384.00 144.06,384.00 C142.01,384.00 140.12,383.79 139.87,383.54 C139.62,383.28 133.80,382.37 126.95,381.52 C114.68,379.98 111.26,379.71 110.32,378.04 C109.96,377.40 109.97,376.54 109.99,375.33 C110.00,375.05 110.00,374.75 110.00,374.42 C110.00,370.21 110.38,367.12 113.17,348.68 C113.86,344.12 114.72,341.66 115.77,341.26 C117.77,340.49 151.21,344.81 152.39,345.99 C153.23,346.83 149.70,379.01 148.39,382.43 ZM 138.63 427.66 C136.36,427.74 133.05,428.01 131.28,428.24 C129.51,428.48 127.93,428.29 127.77,427.82 C127.44,426.82 125.20,426.40 115.50,425.51 C104.26,424.48 104.00,424.35 104.00,419.94 C104.00,413.72 108.02,387.68 109.20,386.26 C109.80,385.54 111.01,385.18 111.89,385.45 C112.78,385.73 119.61,386.66 127.07,387.52 C144.51,389.52 146.41,390.04 146.83,392.93 C147.02,394.19 146.17,402.48 144.96,411.36 L 142.75 427.50 Z" fill="rgb(0,52,120)"/>
<path d="M 99.00 429.08 C99.00,428.58 98.48,427.99 97.84,427.78 C96.61,427.37 96.99,424.01 106.51,352.50 C107.38,345.90 108.51,337.35 109.01,333.50 C111.17,316.79 118.80,258.59 119.95,250.00 C126.00,204.76 126.21,202.81 124.96,201.66 C124.66,201.38 124.43,201.18 124.29,201.08 C125.06,198.46 125.45,195.74 125.42,193.00 C125.39,190.38 125.19,188.02 124.80,185.83 C125.10,187.25 125.36,188.80 125.61,190.50 C126.00,193.25 126.51,194.94 126.74,194.25 C126.98,193.56 128.48,193.00 130.08,193.00 C132.53,193.00 133.00,193.40 133.00,195.52 C133.00,197.19 133.76,198.36 135.25,198.97 C137.19,199.78 166.25,204.00 169.83,204.00 C170.53,204.00 171.57,202.65 172.15,201.00 C173.22,197.92 174.40,197.22 175.51,199.02 C175.86,199.58 176.62,199.73 177.21,199.37 C178.67,198.47 177.95,206.41 173.58,239.50 C166.22,295.18 160.92,335.74 160.04,343.00 C159.54,347.12 158.44,355.23 157.61,361.00 C153.28,390.92 148.95,426.12 149.50,427.00 C149.91,427.66 197.24,428.00 288.41,428.00 C156.63,428.00 149.11,428.09 148.62,429.75 C148.34,430.71 147.33,437.91 146.39,445.75 C144.74,459.46 144.58,460.00 142.37,460.00 C140.69,460.00 140.23,460.43 140.66,461.56 C140.99,462.41 141.88,462.88 142.63,462.59 C144.29,461.95 144.30,462.36 142.85,472.77 C141.82,480.10 141.48,480.97 139.85,480.45 C138.59,480.05 138.00,480.36 138.00,481.43 C138.00,482.29 138.68,483.00 139.50,483.00 C140.33,483.00 141.00,483.89 141.00,485.00 C141.00,486.10 140.89,486.94 140.75,486.86 C140.61,486.79 139.49,486.53 138.25,486.29 C136.67,485.99 136.00,485.15 136.00,483.49 C136.00,482.19 135.51,480.82 134.91,480.45 C134.13,479.96 134.13,479.47 134.91,478.69 C136.45,477.15 136.26,476.00 134.46,476.00 C133.55,476.00 133.03,476.71 133.21,477.71 C133.45,479.15 132.79,479.37 129.00,479.11 C126.53,478.95 124.26,478.66 123.97,478.48 C123.67,478.30 120.75,477.85 117.46,477.49 C114.18,477.12 109.70,476.43 107.50,475.94 C101.33,474.57 97.00,474.79 96.47,476.50 C96.21,477.33 95.81,478.62 95.58,479.38 C94.92,481.53 90.00,480.19 90.00,477.86 C90.00,476.33 90.49,476.08 92.50,476.59 C94.04,476.98 95.00,476.79 95.00,476.11 C95.00,475.50 94.10,475.00 93.00,475.00 C91.80,475.00 91.00,474.33 91.00,473.34 C91.00,471.70 95.59,435.97 96.45,430.89 L 96.78 428.98 C96.92,429.03 97.00,429.09 97.00,429.14 C97.00,429.61 97.45,430.00 98.00,430.00 C98.55,430.00 99.00,429.59 99.00,429.08 ZM 114.50 471.46 C134.84,474.37 135.73,474.40 136.82,472.25 C137.31,471.29 138.52,463.87 139.52,455.77 C141.31,441.20 141.36,441.05 143.67,441.63 C145.06,441.98 146.00,441.77 146.00,441.11 C146.00,440.50 145.10,440.00 144.00,440.00 C142.63,440.00 141.97,439.30 141.89,437.75 C141.83,436.51 141.66,434.04 141.51,432.25 C141.36,430.46 141.66,429.00 142.18,429.00 C142.69,429.00 142.84,428.55 142.50,428.00 C142.39,427.82 142.21,427.66 141.98,427.53 L 142.75 427.50 L 144.96 411.36 C146.17,402.48 147.02,394.19 146.83,392.93 C146.41,390.04 144.51,389.52 127.07,387.52 C119.61,386.66 112.78,385.73 111.89,385.45 C111.01,385.18 109.80,385.54 109.20,386.26 C108.02,387.68 104.00,413.72 104.00,419.94 C104.00,424.35 104.26,424.48 115.50,425.51 C125.20,426.40 127.44,426.82 127.77,427.82 C127.86,428.08 128.40,428.26 129.17,428.32 C128.82,428.62 128.51,429.18 128.29,430.00 C128.00,431.10 127.37,432.00 126.88,432.00 C126.40,432.00 126.00,431.10 126.00,430.00 C126.00,428.89 125.33,428.00 124.50,428.00 C123.67,428.00 123.00,428.89 123.00,430.00 C123.00,431.10 122.55,432.00 122.00,432.00 C121.45,432.00 121.00,431.10 121.00,430.00 C121.00,428.83 120.33,428.00 119.39,428.00 C118.39,428.00 118.00,428.55 118.35,429.47 C119.06,431.31 117.18,432.58 115.79,431.19 C115.22,430.62 114.11,430.40 113.32,430.71 C112.42,431.05 111.67,430.46 111.32,429.13 C110.67,426.63 109.19,426.35 108.34,428.56 C108.01,429.41 107.17,429.89 106.47,429.63 C103.36,428.43 102.20,431.60 100.10,447.00 C98.93,455.52 97.99,462.84 97.99,463.25 C98.00,463.66 96.88,464.00 95.50,464.00 C92.87,464.00 92.18,465.37 94.19,466.62 C94.85,467.02 95.56,466.82 95.77,466.18 C96.42,464.25 98.00,464.84 98.00,467.00 C98.00,468.10 98.11,469.04 98.25,469.09 C98.39,469.14 105.70,470.21 114.50,471.46 ZM 154.39 337.25 C155.42,333.78 159.13,302.02 158.60,301.17 C158.06,300.29 150.78,299.00 135.00,296.97 C130.32,296.38 125.73,295.73 124.80,295.55 C121.09,294.81 119.85,297.31 118.35,308.56 C117.55,314.58 116.64,322.75 116.32,326.73 C116.30,327.01 116.27,327.29 116.25,327.56 C116.01,330.50 115.86,332.31 116.64,333.51 C117.96,335.53 121.91,335.83 132.50,336.94 C139.10,337.63 144.95,338.34 145.50,338.52 C146.05,338.70 148.16,338.88 150.18,338.92 C152.87,338.98 154.01,338.53 154.39,337.25 ZM 160.36 291.25 C160.98,289.07 161.73,283.97 164.07,266.19 C165.11,258.35 165.08,256.66 163.90,255.53 C162.13,253.83 128.24,249.36 126.95,250.65 C126.45,251.15 125.57,254.92 124.99,259.03 C121.17,286.13 121.13,286.48 122.38,287.77 C123.06,288.47 130.08,289.88 138.06,290.91 C157.26,293.40 159.74,293.44 160.36,291.25 ZM 166.38 246.25 C166.66,245.29 167.14,242.48 167.45,240.00 C167.75,237.52 168.72,230.38 169.60,224.13 C171.04,213.86 171.04,212.61 169.64,211.21 C167.81,209.38 156.53,207.40 142.31,206.42 C141.12,206.34 140.06,206.24 139.13,206.16 C135.98,205.88 134.14,205.71 132.97,206.52 C130.99,207.87 130.91,212.00 129.57,223.00 C128.11,235.04 127.67,240.20 127.89,242.66 C127.95,243.30 131.01,244.27 134.75,244.83 C138.46,245.39 144.20,246.27 147.50,246.78 C150.80,247.29 156.28,247.77 159.68,247.85 C164.79,247.97 165.95,247.69 166.38,246.25 ZM 148.39 382.43 C149.70,379.01 153.23,346.83 152.39,345.99 C151.21,344.81 117.77,340.49 115.77,341.26 C114.72,341.66 113.86,344.12 113.17,348.68 C110.38,367.12 110.00,370.21 110.00,374.42 C110.00,374.75 110.00,375.05 109.99,375.33 C109.97,376.54 109.96,377.40 110.32,378.04 C111.26,379.71 114.68,379.98 126.95,381.52 C133.80,382.37 139.62,383.28 139.87,383.54 C140.12,383.79 142.01,384.00 144.06,384.00 C146.52,384.00 147.99,383.47 148.39,382.43 ZM 134.21 427.94 C133.37,428.33 132.84,428.81 132.91,429.36 C133.22,431.61 132.86,433.00 132.00,433.00 C131.45,433.00 131.00,431.88 131.00,430.50 C131.00,429.43 130.75,428.70 130.39,428.33 C130.67,428.31 130.97,428.28 131.28,428.24 C132.04,428.14 133.09,428.03 134.21,427.94 ZM 97.00 439.50 C97.00,440.33 97.68,441.00 98.50,441.00 C99.32,441.00 100.00,440.33 100.00,439.50 C100.00,438.67 99.32,438.00 98.50,438.00 C97.68,438.00 97.00,438.67 97.00,439.50 ZM 138.00 432.50 C138.00,433.33 137.60,434.00 137.11,434.00 C136.61,434.00 136.28,432.88 136.36,431.50 C136.44,430.13 136.87,429.12 137.32,429.28 C137.78,429.43 138.12,429.88 138.07,430.27 C138.03,430.67 138.00,431.67 138.00,432.50 ZM 112.69 475.36 C113.82,476.49 115.00,476.05 115.00,474.50 C115.00,473.67 114.58,473.00 114.06,473.00 C112.80,473.00 111.89,474.56 112.69,475.36 ZM 94.64 461.31 C95.44,462.11 97.00,461.20 97.00,459.94 C97.00,459.42 96.32,459.00 95.50,459.00 C93.95,459.00 93.51,460.18 94.64,461.31 ZM 140.64 467.31 C141.44,468.11 143.00,467.20 143.00,465.94 C143.00,465.42 142.32,465.00 141.50,465.00 C139.95,465.00 139.51,466.18 140.64,467.31 ZM 139.64 472.31 C140.44,473.11 142.00,472.20 142.00,470.94 C142.00,470.42 141.32,470.00 140.50,470.00 C138.95,470.00 138.51,471.18 139.64,472.31 ZM 95.64 456.31 C96.44,457.11 98.00,456.20 98.00,454.94 C98.00,454.42 97.32,454.00 96.50,454.00 C94.95,454.00 94.51,455.18 95.64,456.31 ZM 141.64 457.31 C142.44,458.11 144.00,457.20 144.00,455.94 C144.00,455.42 143.32,455.00 142.50,455.00 C140.95,455.00 140.51,456.18 141.64,457.31 ZM 93.64 471.31 C94.44,472.11 96.00,471.20 96.00,469.94 C96.00,469.42 95.32,469.00 94.50,469.00 C92.95,469.00 92.51,470.18 93.64,471.31 ZM 107.23 473.81 C107.01,474.47 107.55,475.00 108.42,475.00 C109.29,475.00 110.00,474.29 110.00,473.42 C110.00,471.65 107.85,471.96 107.23,473.81 ZM 128.15 476.56 C127.94,477.61 128.31,478.06 129.15,477.78 C130.71,477.26 130.98,475.03 129.50,474.95 C128.95,474.92 128.34,475.64 128.15,476.56 ZM 123.00 475.50 C123.00,476.33 123.45,477.00 124.00,477.00 C124.55,477.00 125.00,476.33 125.00,475.50 C125.00,474.67 124.55,474.00 124.00,474.00 C123.45,474.00 123.00,474.67 123.00,475.50 ZM 96.00 445.00 C96.00,445.55 96.68,446.00 97.50,446.00 C98.32,446.00 99.00,445.55 99.00,445.00 C99.00,444.45 98.32,444.00 97.50,444.00 C96.68,444.00 96.00,444.45 96.00,445.00 ZM 142.00 451.00 C142.00,451.55 142.68,452.00 143.50,452.00 C144.32,452.00 145.00,451.55 145.00,451.00 C145.00,450.45 144.32,450.00 143.50,450.00 C142.68,450.00 142.00,450.45 142.00,451.00 ZM 118.58 476.13 C119.21,477.15 119.45,477.15 119.79,476.14 C120.27,474.69 119.29,473.37 118.40,474.27 C118.07,474.60 118.15,475.44 118.58,476.13 ZM 111.28 218.51 C110.06,219.37 108.79,220.16 107.50,220.84 C104.28,222.53 102.35,223.17 98.46,223.39 C101.82,222.90 105.06,222.01 107.50,220.76 C108.82,220.08 110.08,219.33 111.28,218.51 ZM 124.20 201.37 C124.24,201.45 124.30,201.55 124.36,201.66 C124.72,202.31 124.67,202.98 124.26,203.16 C123.99,203.28 123.40,204.08 122.74,205.17 C123.32,203.93 123.80,202.66 124.20,201.37 ZM 64.23 203.50 C62.93,200.54 62.61,198.16 62.56,192.79 C62.63,197.14 63.07,200.39 64.23,203.50 ZM 84.84 222.67 C85.00,222.72 85.15,222.78 85.31,222.83 C83.52,222.34 81.83,221.51 79.20,220.08 C76.42,218.58 74.27,217.18 72.44,215.57 C75.63,218.24 80.32,220.98 84.84,222.67 ZM 122.54 178.72 C121.04,175.59 118.89,172.76 115.95,169.88 C119.00,172.87 121.06,175.53 122.54,178.72 Z" fill="rgb(8,27,57)"/>
<path d="M 138.63 427.66 L 141.98 427.53 C142.21,427.66 142.39,427.82 142.50,428.00 C142.84,428.55 142.69,429.00 142.18,429.00 C141.66,429.00 141.36,430.46 141.51,432.25 C141.66,434.04 141.83,436.51 141.89,437.75 C141.91,438.07 141.95,438.36 142.02,438.61 C141.84,438.29 141.69,437.92 141.59,437.50 C141.24,436.12 140.41,434.96 139.73,434.91 C139.05,434.86 134.68,434.30 130.00,433.65 C125.36,433.01 123.21,432.62 122.17,431.97 C122.64,431.81 123.00,430.98 123.00,430.00 C123.00,428.89 123.67,428.00 124.50,428.00 C125.33,428.00 126.00,428.89 126.00,430.00 C126.00,431.10 126.40,432.00 126.88,432.00 C127.37,432.00 128.00,431.10 128.29,430.00 C128.51,429.18 128.82,428.62 129.17,428.32 C129.53,428.35 129.94,428.35 130.39,428.33 C130.75,428.70 131.00,429.43 131.00,430.50 C131.00,431.88 131.45,433.00 132.00,433.00 C132.86,433.00 133.22,431.61 132.91,429.36 C132.84,428.81 133.37,428.33 134.21,427.94 C135.70,427.81 137.33,427.70 138.63,427.66 ZM 116.61 431.71 C116.34,431.65 116.05,431.53 115.76,431.35 C115.08,430.93 113.04,430.72 111.21,430.88 C109.39,431.03 107.32,430.68 106.62,430.10 C106.15,429.71 105.72,429.47 105.33,429.40 C105.68,429.39 106.06,429.47 106.47,429.63 C107.17,429.89 108.01,429.41 108.34,428.56 C109.19,426.35 110.67,426.63 111.32,429.13 C111.67,430.46 112.42,431.05 113.32,430.71 C114.11,430.40 115.22,430.62 115.79,431.19 C116.05,431.45 116.33,431.62 116.61,431.71 ZM 138.00 432.50 C138.00,431.67 138.03,430.67 138.07,430.27 C138.12,429.88 137.78,429.43 137.32,429.28 C136.87,429.12 136.44,430.13 136.36,431.50 C136.28,432.88 136.61,434.00 137.11,434.00 C137.60,434.00 138.00,433.33 138.00,432.50 ZM 124.00 430.00 C124.00,430.55 124.45,431.00 125.00,431.00 C125.55,431.00 126.00,430.55 126.00,430.00 C126.00,429.45 125.55,429.00 125.00,429.00 C124.45,429.00 124.00,429.45 124.00,430.00 ZM 134.00 431.00 C134.00,431.55 134.45,432.00 135.00,432.00 C135.55,432.00 136.00,431.55 136.00,431.00 C136.00,430.45 135.55,430.00 135.00,430.00 C134.45,430.00 134.00,430.45 134.00,431.00 ZM 139.00 432.00 C139.00,432.55 139.45,433.00 140.00,433.00 C140.55,433.00 141.00,432.55 141.00,432.00 C141.00,431.45 140.55,431.00 140.00,431.00 C139.45,431.00 139.00,431.45 139.00,432.00 ZM 120.92 429.34 C120.58,428.56 119.97,428.02 119.35,428.00 C119.36,428.00 119.38,428.00 119.39,428.00 C120.14,428.00 120.72,428.53 120.92,429.34 ZM 100.10 447.00 C101.05,439.99 101.81,435.52 102.65,432.83 C101.82,435.59 101.03,440.14 100.10,447.00 ZM 117.90 431.51 C118.43,431.12 118.69,430.36 118.35,429.47 C118.70,430.39 118.46,431.14 117.90,431.51 Z" fill="rgb(104,132,175)"/>
<path d="M 0.00 250.00 L 0.00 0.00 L 250.00 0.00 L 500.00 0.00 L 500.00 250.00 L 500.00 500.00 L 250.00 500.00 L 0.00 500.00 L 0.00 250.00 ZM 141.00 485.00 C141.00,483.89 140.33,483.00 139.50,483.00 C138.68,483.00 138.00,482.29 138.00,481.43 C138.00,480.36 138.59,480.05 139.85,480.45 C141.48,480.97 141.82,480.10 142.85,472.77 C144.30,462.36 144.29,461.95 142.63,462.59 C141.88,462.88 140.99,462.41 140.66,461.56 C140.23,460.43 140.69,460.00 142.37,460.00 C144.58,460.00 144.74,459.46 146.39,445.75 C147.33,437.91 148.34,430.71 148.62,429.75 C149.11,428.09 156.63,428.00 288.41,428.00 C423.83,428.00 427.89,427.95 435.40,426.02 C450.88,422.07 462.53,413.20 469.24,400.28 C475.77,387.69 475.50,393.03 475.50,277.00 C475.50,180.23 475.36,170.98 473.78,165.28 C468.69,146.91 457.43,135.15 438.50,128.45 C434.70,127.10 429.67,126.61 417.52,126.38 C408.19,126.21 400.66,125.62 399.44,124.97 C398.28,124.35 394.94,119.60 392.01,114.42 C382.33,97.31 372.48,87.38 358.99,81.10 C344.72,74.46 328.60,72.60 290.50,73.21 C264.50,73.63 264.50,73.63 255.00,76.79 C242.38,80.99 234.11,85.99 225.47,94.67 C218.99,101.17 215.74,105.82 207.60,120.24 C206.01,123.06 204.03,125.18 202.71,125.48 C201.50,125.76 170.80,126.13 134.50,126.31 C74.95,126.61 67.91,126.81 62.50,128.41 C44.20,133.80 32.09,145.89 26.34,164.55 C24.60,170.16 24.50,176.50 24.50,276.50 C24.50,376.07 24.61,382.89 26.32,388.93 C28.93,398.13 32.46,404.54 38.35,410.82 C49.40,422.60 60.77,426.93 82.70,427.75 L 96.90 428.27 L 96.45 430.89 C95.59,435.97 91.00,471.70 91.00,473.34 C91.00,474.33 91.80,475.00 93.00,475.00 C94.10,475.00 95.00,475.50 95.00,476.11 C95.00,476.79 94.04,476.98 92.50,476.59 C90.49,476.08 90.00,476.33 90.00,477.86 C90.00,480.19 94.92,481.53 95.58,479.38 C95.81,478.62 96.21,477.33 96.47,476.50 C97.00,474.79 101.33,474.57 107.50,475.94 C109.70,476.43 114.18,477.12 117.46,477.49 C120.75,477.85 123.67,478.30 123.97,478.48 C124.26,478.66 126.53,478.95 129.00,479.11 C132.79,479.37 133.45,479.15 133.21,477.71 C133.03,476.71 133.55,476.00 134.46,476.00 C136.26,476.00 136.45,477.15 134.91,478.69 C134.13,479.47 134.13,479.96 134.91,480.45 C135.51,480.82 136.00,482.19 136.00,483.49 C136.00,485.15 136.67,485.99 138.25,486.29 C139.49,486.53 140.61,486.79 140.75,486.86 C140.89,486.94 141.00,486.10 141.00,485.00 ZM 128.15 476.56 C128.34,475.64 128.95,474.92 129.50,474.95 C130.98,475.03 130.71,477.26 129.15,477.78 C128.31,478.06 127.94,477.61 128.15,476.56 ZM 118.58 476.13 C118.15,475.44 118.07,474.60 118.40,474.27 C119.29,473.37 120.27,474.69 119.79,476.14 C119.45,477.15 119.21,477.15 118.58,476.13 ZM 123.00 475.50 C123.00,474.67 123.45,474.00 124.00,474.00 C124.55,474.00 125.00,474.67 125.00,475.50 C125.00,476.33 124.55,477.00 124.00,477.00 C123.45,477.00 123.00,476.33 123.00,475.50 ZM 112.69 475.36 C111.89,474.56 112.80,473.00 114.06,473.00 C114.58,473.00 115.00,473.67 115.00,474.50 C115.00,476.05 113.82,476.49 112.69,475.36 ZM 107.23 473.81 C107.85,471.96 110.00,471.65 110.00,473.42 C110.00,474.29 109.29,475.00 108.42,475.00 C107.55,475.00 107.01,474.47 107.23,473.81 ZM 114.50 471.46 C105.70,470.21 98.39,469.14 98.25,469.09 C98.11,469.04 98.00,468.10 98.00,467.00 C98.00,464.84 96.42,464.25 95.77,466.18 C95.56,466.82 94.85,467.02 94.19,466.62 C92.18,465.37 92.87,464.00 95.50,464.00 C96.88,464.00 98.00,463.66 97.99,463.25 C97.99,462.84 98.93,455.52 100.10,447.00 C102.26,431.16 103.63,427.61 106.62,430.10 C107.32,430.68 109.39,431.03 111.21,430.88 C113.04,430.72 115.08,430.93 115.76,431.35 C117.46,432.40 119.04,431.25 118.35,429.47 C118.00,428.57 118.38,428.00 119.32,428.00 C120.17,428.00 121.00,429.01 121.18,430.24 C121.47,432.24 122.39,432.60 130.00,433.65 C134.68,434.30 139.05,434.86 139.73,434.91 C140.41,434.96 141.24,436.12 141.59,437.50 C141.98,439.06 142.92,440.00 144.11,440.00 C145.15,440.00 146.00,440.50 146.00,441.11 C146.00,441.77 145.06,441.98 143.67,441.63 C141.36,441.05 141.31,441.20 139.52,455.77 C138.52,463.87 137.31,471.29 136.82,472.25 C135.73,474.40 134.84,474.37 114.50,471.46 ZM 139.64 472.31 C138.51,471.18 138.95,470.00 140.50,470.00 C141.32,470.00 142.00,470.42 142.00,470.94 C142.00,472.20 140.44,473.11 139.64,472.31 ZM 93.64 471.31 C92.51,470.18 92.95,469.00 94.50,469.00 C95.32,469.00 96.00,469.42 96.00,469.94 C96.00,471.20 94.44,472.11 93.64,471.31 ZM 140.64 467.31 C139.51,466.18 139.95,465.00 141.50,465.00 C142.32,465.00 143.00,465.42 143.00,465.94 C143.00,467.20 141.44,468.11 140.64,467.31 ZM 94.64 461.31 C93.51,460.18 93.95,459.00 95.50,459.00 C96.32,459.00 97.00,459.42 97.00,459.94 C97.00,461.20 95.44,462.11 94.64,461.31 ZM 141.64 457.31 C140.51,456.18 140.95,455.00 142.50,455.00 C143.32,455.00 144.00,455.42 144.00,455.94 C144.00,457.20 142.44,458.11 141.64,457.31 ZM 95.64 456.31 C94.51,455.18 94.95,454.00 96.50,454.00 C97.32,454.00 98.00,454.42 98.00,454.94 C98.00,456.20 96.44,457.11 95.64,456.31 ZM 142.00 451.00 C142.00,450.45 142.68,450.00 143.50,450.00 C144.32,450.00 145.00,450.45 145.00,451.00 C145.00,451.55 144.32,452.00 143.50,452.00 C142.68,452.00 142.00,451.55 142.00,451.00 ZM 96.00 445.00 C96.00,444.45 96.68,444.00 97.50,444.00 C98.32,444.00 99.00,444.45 99.00,445.00 C99.00,445.55 98.32,446.00 97.50,446.00 C96.68,446.00 96.00,445.55 96.00,445.00 ZM 97.00 439.50 C97.00,438.67 97.68,438.00 98.50,438.00 C99.32,438.00 100.00,438.67 100.00,439.50 C100.00,440.33 99.32,441.00 98.50,441.00 C97.68,441.00 97.00,440.33 97.00,439.50 ZM 139.00 432.00 C139.00,431.45 139.45,431.00 140.00,431.00 C140.55,431.00 141.00,431.45 141.00,432.00 C141.00,432.55 140.55,433.00 140.00,433.00 C139.45,433.00 139.00,432.55 139.00,432.00 ZM 134.00 431.00 C134.00,430.45 134.45,430.00 135.00,430.00 C135.55,430.00 136.00,430.45 136.00,431.00 C136.00,431.55 135.55,432.00 135.00,432.00 C134.45,432.00 134.00,431.55 134.00,431.00 ZM 124.00 430.00 C124.00,429.45 124.45,429.00 125.00,429.00 C125.55,429.00 126.00,429.45 126.00,430.00 C126.00,430.55 125.55,431.00 125.00,431.00 C124.45,431.00 124.00,430.55 124.00,430.00 ZM 286.74 398.98 C256.54,394.19 233.04,382.27 213.39,361.78 C195.88,343.52 184.57,320.80 180.50,295.67 C169.43,227.47 218.56,163.44 287.72,155.92 C325.79,151.78 361.13,163.99 387.57,190.43 C408.03,210.90 419.77,235.90 423.04,266.00 C425.78,291.22 418.88,320.06 404.74,342.49 C383.24,376.61 345.50,398.18 305.00,399.49 C298.12,399.72 289.91,399.49 286.74,398.98 ZM 313.50 363.96 C342.40,359.85 368.14,340.47 380.64,313.41 C391.11,290.74 391.10,263.24 380.61,240.52 C371.39,220.57 353.64,203.64 334.04,196.08 C290.20,179.17 241.03,199.02 221.38,241.56 C212.26,261.29 211.49,286.38 219.36,307.25 C233.73,345.33 274.00,369.59 313.50,363.96 ZM 84.84 222.67 C78.68,220.36 72.19,216.12 69.65,212.73 C64.07,205.29 62.59,200.97 62.55,192.00 C62.52,184.66 62.88,182.80 65.20,178.39 C68.85,171.46 76.87,164.41 83.28,162.51 C89.92,160.54 99.44,160.59 105.43,162.63 C108.58,163.70 112.18,166.18 115.95,169.88 C122.68,176.48 125.30,182.87 125.42,193.00 C125.56,204.22 118.52,215.12 107.50,220.76 C101.43,223.86 90.50,224.78 84.84,222.67 Z" fill="rgb(248,248,248)"/>
</g>
</svg>