<?xml version="1.0" standalone="no"?>
<!DOCTYPE svg PUBLIC "-//W3C//DTD SVG 20010904//EN"
 "http://www.w3.org/TR/2001/REC-SVG-20010904/DTD/svg10.dtd">
<svg version="1.0" xmlns="http://www.w3.org/2000/svg"
 width="500.000000pt" height="500.000000pt" viewBox="0 0 500.000000 500.000000"
 preserveAspectRatio="xMidYMid meet">

<g transform="translate(0.000000,500.000000) scale(0.100000,-0.100000)"
fill="#000000" stroke="none">
<path d="M2670 4263 c-248 -42 -446 -184 -560 -404 -68 -131 7 -119 -724 -119
-691 -1 -734 -4 -849 -58 -133 -62 -213 -152 -264 -298 l-28 -79 -3 -1034 c-3
-1147 -4 -1129 61 -1265 45 -95 124 -173 219 -220 91 -45 137 -54 310 -62 133
-7 137 -8 133 -28 -6 -25 -55 -406 -55 -424 0 -7 7 -12 15 -12 8 0 15 -7 15
-15 0 -18 -26 -20 -33 -2 -3 6 -6 0 -6 -15 -1 -20 3 -26 13 -22 8 3 17 0 21
-5 9 -16 25 -3 25 19 0 10 5 22 10 25 13 8 336 -32 369 -46 18 -7 22 -15 18
-35 -3 -19 -1 -24 11 -19 8 3 21 0 28 -6 11 -9 14 -7 14 10 0 12 -6 21 -15 21
-8 0 -15 7 -15 15 0 18 16 20 27 2 4 -6 23 110 43 258 l35 270 1415 5 1415 5
77 26 c133 46 223 117 292 232 67 112 67 115 73 967 2 421 0 905 -5 1075 -9
275 -12 317 -31 369 -61 170 -203 292 -387 331 -40 9 -124 15 -202 15 -157 0
-150 -4 -226 132 -137 246 -306 355 -598 387 -91 10 -584 13 -638 4z m546
-828 c105 -18 255 -65 339 -108 103 -51 237 -149 325 -237 230 -229 352 -530
353 -870 2 -508 -326 -969 -813 -1145 -252 -90 -542 -94 -797 -9 -292 97 -550
319 -693 595 -99 193 -140 364 -140 588 0 215 48 396 152 577 68 120 119 184
226 285 236 225 511 336 838 338 67 1 161 -6 210 -14z m-2151 -70 c100 -44
163 -126 183 -235 25 -138 -53 -282 -187 -343 -72 -34 -188 -31 -263 6 -71 35
-130 101 -159 176 -17 44 -20 71 -17 131 5 87 29 141 88 200 49 49 90 71 160
86 69 15 130 8 195 -21z m-57 -2663 c2 -7 -3 -12 -12 -12 -9 0 -16 7 -16 16 0
17 22 14 28 -4z m96 3 c-4 -10 0 -15 12 -15 11 0 42 -3 71 -6 45 -6 51 -4 50
11 -1 10 4 20 12 23 10 3 12 -2 7 -22 -6 -23 -3 -26 17 -26 14 0 45 -3 70 -6
39 -6 45 -4 44 11 -1 10 4 20 12 23 10 3 12 -1 8 -19 -3 -12 -2 -28 3 -34 10
-13 -34 -363 -48 -377 -10 -10 -369 35 -382 48 -9 9 33 355 45 374 3 6 20 10
36 10 18 0 28 4 24 10 -3 6 1 10 9 10 10 0 13 -6 10 -15z m56 5 c0 -5 -7 -10
-15 -10 -8 0 -15 5 -15 10 0 6 7 10 15 10 8 0 15 -4 15 -10z m50 -5 c0 -8 -7
-15 -15 -15 -8 0 -15 7 -15 15 0 8 7 15 15 15 8 0 15 -7 15 -15z m179 8 c-31
-3 -36 -7 -32 -24 6 -20 -11 -27 -22 -9 -12 20 17 40 54 38 l36 -1 -36 -4z
m-79 -19 c0 -9 -5 -14 -12 -12 -18 6 -21 28 -4 28 9 0 16 -7 16 -16z m160 0
c0 -9 -5 -14 -12 -12 -18 6 -21 28 -4 28 9 0 16 -7 16 -16z m-470 -39 c0 -8
-7 -15 -15 -15 -8 0 -15 7 -15 15 0 8 7 15 15 15 8 0 15 -7 15 -15z m465 -4
c7 -12 -12 -24 -25 -16 -11 7 -4 25 10 25 5 0 11 -4 15 -9z m-470 -41 c3 -6
-1 -13 -10 -16 -19 -8 -30 0 -20 15 8 14 22 14 30 1z m463 -18 c2 -7 -3 -12
-12 -12 -9 0 -16 7 -16 16 0 17 22 14 28 -4z m-470 -40 c2 -7 -3 -12 -12 -12
-9 0 -16 7 -16 16 0 17 22 14 28 -4z m462 -7 c0 -8 -7 -15 -15 -15 -8 0 -15 7
-15 15 0 8 7 15 15 15 8 0 15 -7 15 -15z m-470 -46 c0 -5 -7 -9 -15 -9 -15 0
-20 12 -9 23 8 8 24 -1 24 -14z m465 1 c3 -6 -1 -13 -10 -16 -19 -8 -30 0 -20
15 8 14 22 14 30 1z m-471 -51 c-7 -11 -34 -12 -34 -1 0 14 11 21 26 15 8 -3
11 -9 8 -14z m466 -10 c0 -5 -7 -9 -15 -9 -15 0 -20 12 -9 23 8 8 24 -1 24
-14z m-472 -40 c-2 -6 -8 -10 -13 -10 -5 0 -11 4 -13 10 -2 6 4 11 13 11 9 0
15 -5 13 -11z m462 -9 c0 -5 -7 -10 -15 -10 -8 0 -15 5 -15 10 0 6 7 10 15 10
8 0 15 -4 15 -10z m-472 -41 c-2 -6 -8 -10 -13 -10 -5 0 -11 4 -13 10 -2 6 4
11 13 11 9 0 15 -5 13 -11z m466 -13 c-3 -8 -12 -12 -20 -9 -21 8 -17 23 6 23
13 0 18 -5 14 -14z m-474 -42 c0 -9 -5 -14 -12 -12 -18 6 -21 28 -4 28 9 0 16
-7 16 -16z m468 -5 c-2 -6 -8 -10 -13 -10 -5 0 -11 4 -13 10 -2 6 4 11 13 11
9 0 15 -5 13 -11z m-418 -14 c0 -8 -7 -15 -15 -15 -8 0 -15 7 -15 15 0 8 7 15
15 15 8 0 15 -7 15 -15z m45 -15 c-5 -8 -11 -8 -17 -2 -6 6 -7 16 -3 22 5 8
11 8 17 2 6 -6 7 -16 3 -22z m55 5 c0 -8 -7 -15 -15 -15 -8 0 -15 7 -15 15 0
8 7 15 15 15 8 0 15 -7 15 -15z m50 -10 c0 -8 -7 -15 -15 -15 -8 0 -15 7 -15
15 0 8 7 15 15 15 8 0 15 -7 15 -15z m50 -11 c0 -16 -16 -19 -25 -4 -8 13 4
32 16 25 5 -4 9 -13 9 -21z m50 1 c0 -8 -7 -15 -15 -15 -16 0 -20 12 -8 23 11
12 23 8 23 -8z m50 -10 c0 -8 -4 -15 -9 -15 -13 0 -22 16 -14 24 11 11 23 6
23 -9z m53 -11 c-5 -15 -16 -18 -26 -8 -10 11 4 33 18 28 8 -3 11 -12 8 -20z
m55 15 c-2 -6 -8 -10 -13 -10 -5 0 -11 4 -13 10 -2 6 4 11 13 11 9 0 15 -5 13
-11z"/>
<path d="M2845 3085 c-312 -57 -578 -299 -677 -615 -20 -66 -23 -94 -23 -240
1 -153 3 -171 29 -250 100 -305 339 -529 641 -601 121 -29 345 -23 443 10 156
54 244 106 351 207 175 165 272 389 272 630 0 553 -490 960 -1036 859z"/>
</g>
</svg>
