<?xml version="1.0" standalone="no"?>
<!DOCTYPE svg PUBLIC "-//W3C//DTD SVG 20010904//EN"
 "http://www.w3.org/TR/2001/REC-SVG-20010904/DTD/svg10.dtd">
<svg version="1.0" xmlns="http://www.w3.org/2000/svg"
 width="150.000000pt" height="152.000000pt" viewBox="0 0 150.000000 152.000000"
 preserveAspectRatio="xMidYMid meet">

<g transform="translate(0.000000,152.000000) scale(0.100000,-0.100000)">
<path fill="red" stroke="red" stroke-width="10" d="M579 1376 c-199 -58 -362 -213 -437 -414 -33 -90 -42 -275 -18 -372
38 -152 136 -297 259 -384 125 -87 232 -120 387 -120 188 0 323 57 460 194
141 140 195 273 194 470 -1 101 -4 126 -31 201 -75 215 -251 379 -468 434 -91
23 -253 19 -346 -9z m371 -57 c99 -32 168 -75 246 -154 114 -115 174 -259 174
-417 0 -103 -14 -167 -61 -266 -95 -206 -312 -342 -544 -342 -282 0 -528 198
-589 477 -30 137 -13 263 54 401 78 157 233 277 410 317 86 19 224 12 310 -16z"/>
<path fill="red" stroke="red" stroke-width="10" d="M690 1114 c-82 -36 -125 -87 -138 -167 -7 -39 -10 -42 -45 -48 -78
-13 -129 -76 -129 -161 1 -38 6 -57 21 -72 26 -26 49 -10 32 22 -6 11 -11 39
-11 60 0 33 6 45 36 72 29 25 44 31 73 29 51 -4 61 6 61 57 0 176 253 240 361
91 16 -22 29 -51 29 -65 0 -24 2 -24 43 -17 92 18 154 -3 190 -63 23 -41 22
-118 -3 -159 -33 -56 -63 -67 -180 -73 -97 -5 -105 -7 -105 -25 0 -18 8 -20
97 -23 104 -3 153 12 197 59 78 84 67 235 -22 303 -38 29 -106 47 -152 39 -28
-4 -34 -2 -40 17 -12 38 -68 92 -120 116 -59 28 -142 31 -195 8z"/>
<path fill="red" stroke="red" stroke-width="10" d="M751 792 c-43 -21 -60 -47 -43 -64 9 -9 17 -7 35 10 32 30 90 30 111
0 21 -30 20 -71 -3 -99 l-19 -24 -287 -3 c-264 -3 -286 -4 -283 -20 3 -15 28
-17 278 -20 301 -3 317 0 350 53 38 62 17 140 -46 170 -41 19 -51 19 -93 -3z"/>
<path fill="red" stroke="red" stroke-width="10" d="M342 513 c3 -16 23 -18 212 -23 181 -4 210 -7 219 -22 8 -12 7 -21
-2 -32 -15 -18 -66 -22 -76 -6 -12 20 -36 11 -33 -12 2 -16 14 -26 38 -34 88
-29 157 60 95 121 l-24 25 -216 0 c-201 0 -216 -1 -213 -17z"/>
<path fill="red" stroke="red" stroke-width="10" d="M926 449 c-33 -55 -45 -84 -38 -91 6 -6 15 -7 20 -4 11 6 102 158
102 169 0 4 -8 7 -18 7 -11 0 -34 -29 -66 -81z"/>
<path fill="red" stroke="red" stroke-width="10" d="M1054 449 c-37 -63 -44 -83 -33 -89 7 -5 16 -7 20 -4 9 5 99 158 99
167 0 4 -9 7 -19 7 -13 0 -34 -25 -67 -81z"/>
</g>
</svg>
