<?xml version="1.0" standalone="no"?>
<!DOCTYPE svg PUBLIC "-//W3C//DTD SVG 20010904//EN"
 "http://www.w3.org/TR/2001/REC-SVG-20010904/DTD/svg10.dtd">
<svg version="1.0" xmlns="http://www.w3.org/2000/svg"
 width="500.000000pt" height="500.000000pt" viewBox="0 0 500.000000 500.000000"
 preserveAspectRatio="xMidYMid meet">

<g transform="translate(0.000000,500.000000) scale(0.100000,-0.100000)"
fill="#00387e" stroke="none">
<path d="M3530 4920 c-236 -33 -428 -168 -670 -471 -88 -110 -198 -272 -230
-340 l-23 -46 -96 -7 c-53 -4 -106 -10 -117 -12 -19 -5 -28 6 -64 73 -107 201
-351 500 -502 613 -311 235 -637 242 -858 20 -155 -156 -255 -419 -267 -700
-4 -96 -1 -127 16 -190 29 -103 29 -102 1 -110 -218 -67 -532 -174 -544 -185
-23 -24 -35 -77 -52 -235 -29 -267 -6 -398 88 -490 l50 -49 -4 -833 c-4 -1061
-5 -1004 21 -1064 27 -59 81 -117 141 -150 25 -13 122 -60 215 -103 94 -43
334 -158 535 -256 483 -234 558 -268 735 -327 172 -59 213 -62 422 -33 361 49
1264 262 1563 368 69 24 257 106 418 183 333 158 377 187 412 281 21 57 21 61
19 980 l-2 923 47 50 c91 97 114 201 96 423 -15 183 -34 277 -61 299 -19 16
-284 107 -504 173 -49 15 -93 30 -97 34 -4 3 5 36 20 71 26 62 27 73 26 225 0
146 -3 170 -31 278 -105 393 -292 590 -583 611 -36 2 -90 1 -120 -4z m207
-151 l32 -10 -14 -44 c-29 -99 -101 -187 -208 -256 -34 -22 -138 -78 -230
-124 -93 -47 -206 -109 -250 -139 -92 -61 -234 -180 -265 -223 -20 -28 -21
-28 -36 -8 -44 58 -46 51 69 211 127 177 226 296 315 382 135 130 279 204 440
225 34 5 108 -3 147 -14z m-2265 -18 c134 -34 226 -90 357 -216 102 -97 165
-174 305 -369 l107 -149 -33 -28 c-18 -15 -36 -28 -40 -29 -3 0 -18 14 -33 32
-87 103 -264 223 -505 342 -254 125 -352 206 -401 336 -27 71 -25 76 29 88 75
15 133 13 214 -7z m2478 -138 c124 -169 209 -523 166 -692 -31 -123 -101 -216
-217 -291 -79 -51 -148 -77 -289 -107 -104 -23 -137 -25 -345 -26 -152 0 -268
5 -343 15 -62 9 -114 17 -115 19 -1 2 0 72 3 155 l5 152 105 97 c136 126 255
204 470 308 206 99 307 165 383 247 49 52 107 150 107 179 0 26 23 7 70 -56z
m-2844 4 c30 -85 127 -193 238 -265 39 -24 149 -82 245 -128 206 -99 335 -182
450 -291 l84 -79 2 -150 c1 -82 5 -159 9 -170 8 -26 0 -28 -177 -45 -161 -15
-451 -7 -577 16 -241 44 -426 159 -496 310 -54 117 -53 256 3 470 42 160 96
274 166 353 27 29 37 25 53 -21z m1528 -727 c19 -18 21 -35 24 -168 5 -167 -5
-223 -44 -249 -22 -14 -39 -15 -142 -6 -64 6 -130 16 -145 22 -43 17 -55 60
-62 222 -7 138 -6 145 14 171 21 27 25 27 144 31 160 5 187 2 211 -23z m-1749
-311 c28 -27 65 -59 83 -71 18 -11 30 -23 27 -26 -3 -3 -51 -25 -108 -48
l-102 -42 -135 48 c-224 80 -221 64 -25 130 94 32 179 59 190 59 12 1 41 -20
70 -50z m3447 -31 c109 -34 198 -65 198 -68 0 -11 -558 -160 -599 -160 -10 0
-60 18 -112 39 -87 37 -92 40 -64 47 95 23 272 120 324 178 14 14 31 26 39 26
9 0 105 -28 214 -62z m-3815 -217 l232 -83 -11 -27 c-6 -15 -11 -114 -12 -238
0 -116 -4 -215 -8 -219 -9 -8 -167 56 -299 122 -146 72 -172 121 -170 314 1
144 10 222 25 217 6 -2 115 -41 243 -86z m789 39 c32 -6 66 -14 74 -17 8 -3
-40 -24 -106 -48 l-121 -44 -64 24 c-35 13 -75 27 -88 32 -21 8 -13 14 74 50
92 38 101 40 135 28 20 -7 63 -18 96 -25z m3439 -64 c4 -46 6 -137 4 -203 -4
-112 -6 -122 -32 -161 -48 -69 -249 -157 -576 -251 l-166 -49 -5 252 c-3 138
-8 256 -13 263 -8 13 6 18 293 92 187 48 397 108 450 130 14 5 28 10 32 10 3
1 9 -37 13 -83z m-2503 55 c49 -29 138 -43 272 -45 96 -1 128 3 154 16 l32 17
265 -92 c169 -59 257 -94 246 -99 -10 -3 -263 -57 -564 -119 l-547 -112 -297
106 c-164 59 -328 117 -365 129 -37 13 -67 28 -67 33 0 6 80 38 178 72 175 61
182 62 337 73 131 10 207 19 316 39 4 0 22 -8 40 -18z m1352 -56 c58 -25 84
-41 75 -45 -8 -5 -54 -16 -104 -27 l-90 -19 -199 67 -199 66 214 -2 214 -1 89
-39z m-2600 -144 c59 -22 110 -41 112 -44 2 -2 3 -121 2 -264 l-3 -260 -110
47 -110 46 -5 257 c-3 141 -3 257 1 257 3 0 54 -18 113 -39z m2819 -288 c-1
-147 -6 -270 -10 -273 -8 -7 -205 -61 -209 -57 -1 1 -4 124 -5 274 l-4 271
110 25 c61 14 113 26 116 26 3 1 4 -119 2 -266z m-2129 42 l368 -131 -1 -269
c-1 -148 -4 -271 -6 -274 -5 -5 -291 100 -583 213 l-187 73 -5 174 c-3 96 -4
216 -2 267 3 90 4 93 25 86 12 -4 188 -66 391 -139z m1746 -139 l0 -274 -22
-5 c-214 -53 -1166 -257 -1200 -257 -16 0 -17 24 -20 273 -2 149 -3 273 -3
274 1 1 239 52 530 113 292 60 568 118 615 129 47 11 88 20 93 20 4 1 7 -122
7 -273z m-2844 -132 l132 -57 6 -776 c3 -427 8 -833 10 -903 2 -71 0 -128 -5
-128 -28 0 -225 98 -261 130 l-43 38 -3 882 c-2 841 -2 882 15 877 10 -3 77
-31 149 -63z m3994 -829 c0 -952 2 -914 -61 -952 -38 -23 -554 -273 -563 -273
-4 0 -4 28 0 63 3 34 9 460 13 947 l6 884 95 29 c189 56 410 128 452 146 24
11 46 20 51 20 4 1 7 -388 7 -864z m-3574 655 l101 -41 7 -877 c3 -482 9 -899
13 -925 l6 -49 -133 67 -133 67 6 316 c4 173 7 578 7 899 0 460 3 583 13 583
6 0 57 -18 113 -40z m2808 -787 c3 -417 9 -841 14 -943 5 -109 4 -188 -1 -191
-15 -11 -257 -83 -261 -78 -2 2 0 51 4 109 4 58 11 488 15 956 l8 851 101 25
c55 14 104 26 107 27 4 1 9 -340 13 -756z m-2463 651 c110 -44 499 -189 602
-225 l97 -33 0 -669 c0 -368 5 -790 11 -939 6 -148 9 -272 6 -274 -16 -17
-419 137 -646 247 l-183 89 6 32 c7 35 24 1101 25 1536 1 144 5 262 9 262 5 0
37 -12 73 -26z m2080 -516 c0 -438 13 -1248 22 -1352 2 -29 0 -30 -83 -53 -47
-12 -193 -48 -325 -79 -132 -31 -301 -71 -375 -89 -170 -42 -365 -75 -442 -75
l-60 0 6 93 c3 50 9 480 12 955 l6 862 22 5 c11 3 143 30 291 60 149 30 407
86 575 124 168 38 315 69 328 70 l22 1 1 -522z"/>
<path d="M3505 4675 c-151 -34 -252 -90 -365 -204 -80 -81 -159 -199 -143
-214 3 -4 42 28 87 70 124 117 326 260 461 325 24 12 42 25 39 30 -6 10 -4 10
-79 -7z"/>
<path d="M1400 4663 c0 -5 33 -25 73 -46 41 -22 145 -93 233 -159 168 -127
193 -143 201 -134 10 10 -85 132 -147 190 -74 68 -143 109 -229 136 -63 20
-131 26 -131 13z"/>
<path d="M3935 4423 c45 -117 59 -332 29 -433 -60 -202 -179 -294 -456 -350
-111 -23 -368 -49 -485 -50 -72 0 -103 -12 -60 -24 12 -3 108 -9 212 -12 374
-13 605 44 735 182 117 124 159 317 110 508 -22 88 -68 196 -82 196 -6 0 -7
-8 -3 -17z"/>
<path d="M3056 3859 c-54 -13 -136 -59 -136 -77 0 -12 15 -14 84 -10 69 4 96
10 151 37 36 18 64 38 62 44 -5 15 -108 19 -161 6z"/>
<path d="M3170 3739 c-79 -8 -276 -52 -289 -64 -25 -25 123 -33 296 -15 107
11 265 50 270 67 7 21 -126 27 -277 12z"/>
<path d="M1021 4340 c-99 -205 -115 -384 -45 -525 85 -170 260 -233 694 -252
150 -6 340 3 340 17 0 4 -39 10 -87 14 -251 20 -621 80 -717 117 -200 77 -258
300 -159 612 13 43 22 84 20 90 -3 7 -23 -26 -46 -73z"/>
<path d="M1590 3940 c0 -13 106 -62 181 -83 54 -16 190 -37 235 -37 84 0 -55
76 -202 110 -91 22 -214 27 -214 10z"/>
<path d="M1550 3790 c0 -14 79 -48 164 -71 98 -27 316 -26 316 1 0 11 -146 49
-250 66 -101 17 -230 19 -230 4z"/>
<path d="M2423 3850 c-35 -14 -28 -26 22 -39 57 -14 72 -37 92 -143 23 -120
21 -117 46 -78 28 44 30 158 4 207 -29 54 -102 78 -164 53z"/>
<path d="M310 3258 c-75 -123 0 -275 166 -338 54 -20 134 -27 134 -12 0 4 -26
20 -57 37 -136 71 -219 187 -211 292 5 61 -4 67 -32 21z"/>
<path d="M4585 2985 c-164 -50 -380 -135 -479 -187 -86 -45 114 -19 282 37
131 44 322 148 322 175 0 14 -1 13 -125 -25z"/>
<path d="M2660 3178 c-25 -5 -115 -27 -200 -48 -314 -77 -366 -76 -672 16 -10
3 -18 0 -18 -6 0 -16 195 -107 270 -126 138 -35 313 -7 565 89 50 19 123 42
163 52 40 10 75 22 78 26 7 12 -129 9 -186 -3z"/>
<path d="M1380 2566 c49 -47 456 -176 554 -176 36 0 11 21 -76 63 -152 74
-344 127 -456 127 -32 0 -34 -2 -22 -14z"/>
<path d="M3185 2563 c-275 -38 -871 -167 -900 -194 -22 -22 236 -3 435 32 209
36 570 135 585 159 6 10 -59 11 -120 3z"/>
<path d="M526 2333 c-34 -307 -34 -860 0 -1166 28 -256 66 493 45 878 -15 265
-22 345 -31 345 -5 0 -11 -26 -14 -57z"/>
<path d="M4457 2435 c-29 -99 -40 -836 -18 -1165 19 -274 33 -266 51 30 19
319 6 1063 -20 1135 -7 20 -7 20 -13 0z"/>
<path d="M1372 2208 c6 -18 107 -74 197 -110 67 -26 175 -55 269 -72 56 -10
37 17 -46 60 -94 51 -199 90 -312 115 -101 22 -113 23 -108 7z"/>
<path d="M1948 1885 c-30 -50 -43 -958 -19 -1290 19 -262 31 -240 51 90 24
386 1 1254 -32 1200z"/>
<path d="M2837 2149 c-147 -17 -329 -62 -479 -120 -112 -44 -91 -54 68 -34
200 26 520 118 532 153 4 14 -15 14 -121 1z"/>
<path d="M2485 1965 c-68 -15 -176 -64 -183 -82 -5 -17 95 -17 170 -2 58 12
178 65 178 78 0 24 -73 26 -165 6z"/>
<path d="M3297 1863 c-20 -212 -29 -514 -23 -743 5 -238 23 -530 32 -539 10
-10 15 13 24 120 31 346 17 1229 -20 1229 -4 0 -10 -30 -13 -67z"/>
</g>
</svg>
