<?xml version="1.0" standalone="no"?>
<!DOCTYPE svg PUBLIC "-//W3C//DTD SVG 20010904//EN"
 "http://www.w3.org/TR/2001/REC-SVG-20010904/DTD/svg10.dtd">
<svg version="1.0" xmlns="http://www.w3.org/2000/svg"
 width="500.000000pt" height="500.000000pt" viewBox="0 0 500.000000 500.000000"
 preserveAspectRatio="xMidYMid meet">

<g transform="translate(0.000000,500.000000) scale(0.100000,-0.100000)"
fill="#00387e" stroke="none">
<path d="M565 4619 c-4 -6 -6 -66 -6 -134 2 -105 -1 -130 -18 -162 -10 -21
-135 -234 -276 -473 l-257 -435 0 -190 c1 -211 8 -249 65 -339 38 -60 131
-131 200 -151 65 -19 170 -19 233 0 27 8 50 15 52 15 1 0 1 -435 0 -967 l-3
-968 -208 -1 c-114 -1 -210 -4 -213 -7 -8 -8 -7 -414 1 -426 8 -15 4721 -15
4730 -1 8 12 9 419 1 427 -3 3 -99 6 -213 7 l-208 1 -3 968 c-1 532 -1 967 0
967 2 0 25 -7 52 -15 62 -19 169 -19 230 -1 110 33 207 128 247 241 18 50 20
84 21 252 0 116 -4 198 -10 206 -8 10 -474 801 -523 887 -9 17 -16 71 -19 165
l-5 140 -1932 3 c-1373 1 -1934 -1 -1938 -9z m3805 -154 l0 -95 -1870 0 -1870
0 0 95 0 95 1870 0 1870 0 0 -95z m-3291 -172 c0 -5 -80 -197 -178 -428 l-177
-420 -308 -3 c-169 -1 -306 1 -304 6 1 5 115 198 252 430 l249 422 233 0 c129
0 234 -3 233 -7z m450 -419 c-59 -234 -109 -428 -112 -430 -2 -2 -142 -3 -310
-2 l-306 3 125 295 c68 162 150 355 180 428 l56 132 237 0 237 0 -107 -426z
m656 379 c-8 -65 -65 -762 -65 -790 l0 -23 -314 0 -314 0 109 428 c60 235 109
428 109 430 0 1 108 2 240 2 l241 0 -6 -47z m555 38 c0 -4 16 -192 35 -417 19
-224 35 -414 35 -421 0 -10 -64 -13 -310 -13 -241 0 -310 3 -310 13 0 6 16
199 35 427 19 228 35 416 35 418 0 1 108 2 240 2 132 0 240 -4 240 -9z m559
-28 c33 -125 201 -804 201 -813 0 -7 -106 -10 -310 -10 l-310 0 0 23 c0 12
-16 204 -35 427 -19 223 -35 406 -35 408 0 1 108 2 240 2 l239 0 10 -37z m595
-95 c30 -73 112 -266 180 -428 l125 -295 -306 -3 c-168 -1 -308 0 -310 2 -3 2
-53 196 -113 430 l-108 426 238 0 238 0 56 -132z m745 -295 l251 -428 -302 -3
c-166 -1 -305 1 -309 5 -7 8 -359 840 -359 849 0 2 105 4 234 4 l233 0 252
-427z m-3931 -680 c-4 -189 -14 -225 -83 -301 -147 -163 -418 -125 -515 73
-23 46 -25 63 -28 223 l-4 172 317 0 317 0 -4 -167z m702 12 c0 -133 -3 -162
-21 -211 -26 -70 -86 -137 -154 -172 -43 -23 -62 -27 -140 -27 -78 0 -97 4
-140 27 -64 34 -118 90 -147 153 -20 45 -23 68 -26 218 l-4 167 316 0 316 0 0
-155z m698 -22 c-3 -159 -5 -182 -25 -218 -28 -53 -82 -108 -141 -142 -42 -25
-56 -28 -142 -28 -80 0 -102 4 -138 23 -66 35 -119 88 -149 150 -27 54 -28 65
-31 225 l-4 167 317 0 317 0 -4 -177z m709 18 c-3 -88 -11 -177 -18 -199 -18
-61 -77 -132 -143 -171 -49 -29 -69 -35 -134 -39 -63 -3 -88 0 -136 18 -68 26
-141 92 -170 155 -22 46 -35 149 -35 293 l-1 102 322 0 321 0 -6 -159z m703
12 c-2 -193 -20 -254 -94 -329 -71 -70 -144 -97 -247 -92 -88 5 -141 31 -208
100 -68 71 -81 122 -81 308 l0 160 316 0 315 0 -1 -147z m698 -20 c-3 -150 -6
-173 -26 -218 -51 -110 -164 -185 -282 -185 -94 0 -154 24 -221 90 -85 82 -99
130 -99 325 l0 155 316 0 316 0 -4 -167z m700 -5 c-3 -161 -5 -176 -28 -222
-57 -112 -141 -167 -266 -174 -72 -4 -89 -1 -137 21 -74 34 -131 88 -164 155
-27 54 -28 65 -32 225 l-3 167 317 0 316 0 -3 -172z m-4105 -346 c83 -89 182
-127 306 -120 125 7 235 71 301 175 l26 41 19 -34 c27 -51 108 -122 173 -152
80 -36 203 -42 285 -13 77 27 146 79 188 141 38 55 45 59 54 30 12 -37 109
-126 170 -156 55 -26 69 -29 165 -29 96 0 110 3 165 29 61 30 158 119 170 156
9 29 16 25 54 -30 42 -62 111 -114 188 -141 82 -29 206 -23 284 13 67 30 132
87 169 146 l28 42 12 -30 c17 -41 117 -131 176 -160 68 -32 200 -39 275 -15
88 29 190 112 221 180 11 24 11 24 38 -18 15 -23 41 -55 59 -71 l31 -30 0
-993 0 -993 -1187 2 -1188 3 -5 795 -5 795 -485 0 -485 0 -5 -795 -5 -795
-187 -3 -188 -2 0 991 0 991 46 52 c26 28 51 61 57 74 10 22 10 22 30 -10 10
-18 33 -48 50 -66z m1107 -1262 l0 -760 -420 0 -420 0 0 760 0 760 420 0 420
0 0 -760z m2880 -990 l0 -150 -2300 0 -2300 0 0 150 0 150 2300 0 2300 0 0
-150z"/>
<path d="M2267 2403 c-4 -3 -7 -241 -7 -528 0 -392 3 -524 12 -533 17 -17
1619 -17 1636 0 9 9 12 139 12 524 0 282 -3 519 -6 528 -6 14 -87 16 -823 16
-450 0 -821 -3 -824 -7z m1581 -530 l-3 -468 -755 0 -755 0 -3 468 -2 467 760
0 760 0 -2 -467z"/>
</g>
</svg>
